<?xml version="1.0" standalone="no"?>
<!DOCTYPE svg PUBLIC "-//W3C//DTD SVG 1.1//EN" "http://www.w3.org/Graphics/SVG/1.1/DTD/svg11.dtd" >
<svg xmlns="http://www.w3.org/2000/svg">
<metadata></metadata>
<defs>
<font id="gnuolane_free_cyrillicregular" horiz-adv-x="962" >
<font-face units-per-em="2048" ascent="1638" descent="-410" />
<missing-glyph horiz-adv-x="434" />
<glyph horiz-adv-x="0" />
<glyph horiz-adv-x="0" />
<glyph horiz-adv-x="682" />
<glyph unicode="&#xd;" horiz-adv-x="966" />
<glyph unicode=" "  horiz-adv-x="434" />
<glyph unicode="&#x09;" horiz-adv-x="434" />
<glyph unicode="&#xa0;" horiz-adv-x="434" />
<glyph unicode="!" horiz-adv-x="403" d="M80 1602h242l-39 -1125h-164zM104 0v266h191v-266h-191z" />
<glyph unicode="&#x22;" horiz-adv-x="524" d="M23 1593h165l-20 -598h-125zM336 1593h166l-17 -598h-129z" />
<glyph unicode="#" horiz-adv-x="1003" d="M31 492v133h159l97 348h-172v131h213l114 414l150 -41l-105 -373h197l115 414l153 -41l-108 -373h125v-131h-162l-96 -348h176v-133h-213l-109 -396l-153 39l104 357h-201l-110 -396l-152 39q99 341 103 357h-125zM350 625h197l96 348h-192z" />
<glyph unicode="$" horiz-adv-x="743" d="M47 520l166 25q0 -52 5 -87.5t19 -68t42.5 -49t72.5 -16.5q93 0 126.5 39.5t33.5 121.5q0 89 -40 135.5t-134 90.5q-131 61 -192.5 137.5t-61.5 204.5q0 120 49.5 189.5t171.5 82.5v201h119v-197q126 -12 174 -63.5t70 -188.5l-152 -28q-11 71 -38.5 100t-92.5 29 q-59 0 -90 -25.5t-31 -93.5q0 -70 32.5 -115.5t109.5 -81.5q40 -20 60 -30.5t52.5 -29t48.5 -32t38.5 -35t33.5 -43t22.5 -50.5t16 -63t4.5 -75q0 -293 -258 -326v-178h-119v174q-130 14 -194 96.5t-64 249.5z" />
<glyph unicode="%" horiz-adv-x="1267" d="M61 1147q0 49 0.5 82.5t3.5 73.5t8 67.5t14 57.5t21.5 49.5t30.5 38.5t42 29.5t55 17t69 6.5q69 0 116 -21.5t72 -51.5t38 -92t15.5 -113t2.5 -144q0 -54 -1 -87.5t-4 -78t-10 -72.5t-18.5 -60.5t-29.5 -52t-43 -37t-59.5 -25t-78.5 -7.5q-49 0 -86.5 11.5t-63 29.5 t-43.5 50t-28 63t-15 79.5t-6.5 88t-1.5 98.5zM197 1147q0 -63 1 -97t4 -74t10 -59.5t19 -37.5t30 -24.5t44 -6.5t44 6.5t30 25t18.5 37t10 59t4 74t0.5 97.5t-0.5 97.5t-4 74t-10 59t-18.5 36.5t-30 24t-44 6t-44 -6t-30 -24t-19 -37t-10 -58.5t-4 -74t-1 -97.5zM238 0 l657 1548h137l-655 -1548h-139zM719 399q0 55 1 92t4.5 81t11 72.5t19 59.5t30 50t43 35t58.5 23t77 7q39 0 70.5 -6.5t55.5 -16.5t42 -29.5t30.5 -38t21 -49.5t13 -56.5t7 -67.5t3 -73.5t0.5 -82.5q0 -48 -0.5 -78t-3 -71t-7 -66.5t-13 -57.5t-21 -51t-30.5 -39t-42 -31 t-55.5 -18t-70.5 -7q-49 0 -86.5 11.5t-63 29t-43.5 49.5t-28 62.5t-15 79t-6.5 88t-1.5 99.5zM854 399q0 -62 1 -97t4.5 -74.5t10 -59t19 -37.5t30.5 -24.5t44 -6.5q20 0 34.5 3.5t26 14t19 20.5t12.5 32.5t8 40t4 52.5t1.5 61t0.5 75q0 65 -0.5 97.5t-4 73.5t-9.5 59 t-18 36.5t-30 24.5t-44 6t-44 -6t-30.5 -24t-19 -37t-10 -58t-4.5 -74.5t-1 -97.5z" />
<glyph unicode="&#x26;" horiz-adv-x="1062" d="M51 326q0 200 77 332t226 239q-100 185 -100 395q0 42 4 74t18.5 69t39.5 61t71 40t109 16q134 0 184.5 -61t50.5 -197q0 -77 -16.5 -142t-49 -118t-66 -91t-81.5 -81q106 -195 260 -405q52 134 68 379l166 -31q-46 -327 -115 -498q24 -26 164 -172l-125 -149 q-95 100 -141 155q-139 -172 -346 -172q-108 0 -189 32.5t-124.5 86t-64 113.5t-20.5 125zM242 373q0 -242 198 -242q156 0 254 150q-153 210 -282 464q-170 -144 -170 -372zM397 1276q0 -122 62 -275q133 129 133 277q0 66 -21 100.5t-75 34.5q-99 0 -99 -137z" />
<glyph unicode="'" horiz-adv-x="210" d="M23 1593h165l-18 -598h-127z" />
<glyph unicode="(" horiz-adv-x="645" d="M61 655q0 739 381 965l90 -107q-147 -103 -228 -336t-81 -522q0 -317 93.5 -538t267.5 -293l-74 -111q-121 43 -209.5 133.5t-140 217t-75.5 272.5t-24 319z" />
<glyph unicode=")" horiz-adv-x="645" d="M61 1503l74 113q449 -171 449 -944q0 -157 -19 -295t-61 -268t-118.5 -233.5t-182.5 -166.5l-88 107q149 108 228 335t79 521q0 316 -94.5 537t-266.5 294z" />
<glyph unicode="*" horiz-adv-x="999" d="M61 1176l56 153l319 -133l-35 330h195l-31 -332l324 133l49 -156l-346 -81l227 -250l-155 -109l-162 283l-180 -279l-146 109l230 243z" />
<glyph unicode="+" horiz-adv-x="1085" d="M61 696v129h416v418h129v-418h418v-129h-418v-417h-129v417h-416z" />
<glyph unicode="," horiz-adv-x="333" d="M68 -207q106 106 106 219h-94v254h194v-215q0 -144 -151 -301z" />
<glyph unicode="-" horiz-adv-x="448" d="M23 537l16 129h389l-16 -129h-389z" />
<glyph unicode="." horiz-adv-x="313" d="M61 0v266h193v-266h-193z" />
<glyph unicode="/" horiz-adv-x="512" d="M8 0l375 1526h121l-375 -1526h-121z" />
<glyph unicode="0" horiz-adv-x="899" d="M61 762q0 142 1 210.5t6 167.5t14.5 141.5t28.5 101.5t46 81t69 48t96 33t127 7t127 -7t95.5 -32.5t69 -48t46.5 -80.5t29 -102t15 -141t6 -168.5t1 -210.5t-1 -210.5t-6 -167.5t-15 -140.5t-29 -102.5t-46.5 -80.5t-69 -48t-95.5 -32.5t-127 -7t-127 7t-96 33t-69 48 t-46 81.5t-28.5 101.5t-14.5 141t-6 167.5t-1 209.5zM264 762q0 -399 28.5 -513t156.5 -114q124 0 153 115.5t29 511.5q0 85 -0.5 138.5t-2 116t-4 100t-7.5 80.5t-12 66.5t-17 49t-23 38t-30.5 24t-38 15t-47.5 3.5q-127 0 -156 -116.5t-29 -514.5z" />
<glyph unicode="1" horiz-adv-x="507" d="M18 1323q109 23 176 76t123 153h129v-1552h-202v1278q-22 -39 -76.5 -70t-124.5 -37z" />
<glyph unicode="2" horiz-adv-x="817" d="M51 1051q3 71 5.5 106t8 91t13 82.5t20.5 66t31 57.5t44 41.5t60.5 33t79.5 16.5t101 7q96 0 158.5 -23t99 -77t51 -132t14.5 -198q0 -134 -40 -276t-107.5 -268t-139.5 -229t-153 -193h471l-10 -156h-697v152q98 91 182.5 201t153.5 234.5t108.5 263.5t39.5 271 q0 151 -34 211t-114 60q-33 0 -56 -7t-40 -28t-27 -44t-17 -71.5t-10.5 -93.5t-8.5 -125z" />
<glyph unicode="3" horiz-adv-x="829" d="M43 293l166 55q7 -46 14 -76t20 -58.5t32.5 -44t49.5 -25t72 -9.5q50 0 84 13.5t55 36.5t32 65.5t14.5 88t3.5 116.5q0 143 -38 200.5t-153 57.5h-108l16 155h92q89 0 118.5 51t29.5 195q0 67 -2 106.5t-10 77t-23 55.5t-40.5 29t-64.5 11q-84 0 -114.5 -46.5 t-42.5 -175.5l-172 17q6 109 21 173t51.5 110t97 63.5t159.5 17.5q65 0 115.5 -10.5t85.5 -28t59.5 -48.5t38.5 -62t21.5 -78.5t9.5 -89t2 -102.5q0 -120 -35 -216.5t-100 -119.5q98 -32 138 -122t40 -235q0 -48 -1 -83t-5.5 -78t-12.5 -73.5t-22 -64.5t-33.5 -57.5 t-47.5 -45.5t-64.5 -35.5t-84.5 -21.5t-106 -8q-100 0 -168 21t-107.5 65t-58 99t-24.5 135z" />
<glyph unicode="4" horiz-adv-x="780" d="M27 311v133l419 1082h240v-1053h86l-16 -162h-70v-311h-199v311h-460zM201 473h286v733z" />
<glyph unicode="5" horiz-adv-x="825" d="M23 223l137 101q38 -97 86 -143t129 -46q56 0 92 16.5t56 39t29.5 77t11 98t1.5 134.5q0 74 -2.5 118t-10.5 85.5t-24.5 61.5t-44 32t-69.5 12q-110 0 -181 -68l-133 68l45 717h578l-18 -172h-375l-27 -428q68 51 217 51q63 0 108 -19t74 -54t45.5 -94t22.5 -128.5 t6 -167.5q0 -65 -1 -109t-5.5 -96.5t-12.5 -87.5t-22 -73t-34.5 -62.5t-49 -48t-66.5 -36t-87 -20.5t-109 -8q-98 0 -166 28.5t-112.5 80t-87.5 141.5z" />
<glyph unicode="6" horiz-adv-x="886" d="M61 713q0 334 35.5 513t114.5 252.5t227 73.5q188 0 266.5 -68.5t86.5 -230.5l-158 -61q-8 106 -45.5 153.5t-138.5 47.5q-44 0 -75.5 -12.5t-54 -43.5t-36.5 -72.5t-21.5 -109.5t-10.5 -144.5t-3 -187.5q45 79 126 121.5t167 42.5q57 0 101.5 -13t75.5 -34t52.5 -57 t34 -72.5t19 -91.5t8.5 -103t2 -116q0 -66 -2 -114t-8 -101.5t-18.5 -91t-31.5 -75.5t-48 -62.5t-67.5 -44.5t-91 -29t-118.5 -9q-69 0 -124.5 14.5t-95 47t-68.5 68t-47 95t-29.5 108.5t-16 127.5t-6 134.5t-1.5 145zM264 633q2 -108 4 -163t8 -123.5t17 -98.5t31 -61.5 t49 -41.5t71 -10t73 10.5t51 34.5t32 51t18 71t7.5 82t1.5 97q0 69 -1.5 109.5t-7 84.5t-16 67.5t-29 44t-46 28.5t-66.5 8q-67 0 -120 -50t-77 -140z" />
<glyph unicode="7" horiz-adv-x="681" d="M35 1366l16 160h606v-125q-70 -89 -126.5 -247.5t-92 -353t-57.5 -394t-31 -406.5h-237q17 400 113.5 776t240.5 590h-432z" />
<glyph unicode="8" horiz-adv-x="872" d="M51 399q0 198 49.5 291t188.5 129q-108 29 -145.5 108.5t-37.5 262.5q0 181 75.5 271.5t256.5 90.5q178 0 255 -89.5t77 -272.5q0 -180 -39.5 -259.5t-140.5 -109.5q121 -39 178 -137t57 -285q0 -238 -89 -332t-298 -94t-298 94t-89 332zM246 406q0 -152 39.5 -217.5 t144.5 -65.5t143.5 65t38.5 218q0 158 -38.5 225.5t-145.5 109.5q-71 -22 -109 -57.5t-55.5 -100.5t-17.5 -177zM297 1196q0 -80 7 -129.5t26.5 -83t45 -52t70.5 -38.5q44 21 68 38.5t44.5 50.5t28 83.5t7.5 130.5q0 121 -32.5 169t-112.5 48q-81 0 -116.5 -49t-35.5 -168z " />
<glyph unicode="9" horiz-adv-x="886" d="M53 1063q0 77 2.5 129t11.5 107.5t26 91t45 68.5t69 51.5t98.5 29t132.5 10.5q79 0 140 -19.5t101.5 -48.5t69 -84.5t43 -104t22.5 -132t9.5 -144t1.5 -163.5q0 -335 -37.5 -525t-120.5 -274t-229 -84q-187 0 -277 82.5t-98 247.5l156 59q8 -105 58.5 -168t150.5 -63 q43 0 75.5 16t55.5 50.5t38 81.5t24 117t12.5 149t3.5 184q-46 -64 -125 -105.5t-168 -41.5q-57 0 -101 13t-74.5 34t-52 57t-34 72.5t-19 91t-8.5 101.5t-2 114zM258 1069q0 -55 1 -89.5t4.5 -73.5t11 -61.5t19.5 -45t30.5 -33.5t44 -18t59.5 -7q61 0 111.5 47t81.5 123 q0 78 -0.5 126t-3.5 102t-8 84t-14 62.5t-21.5 48t-31.5 29.5t-43.5 18.5t-56.5 4.5q-51 0 -84.5 -13t-53.5 -35t-30 -65t-13 -86.5t-3 -117.5z" />
<glyph unicode=":" horiz-adv-x="313" d="M61 0v266h193v-266h-193zM61 846v266h193v-266h-193z" />
<glyph unicode=";" horiz-adv-x="327" d="M55 -207q107 107 107 219h-94v254h194v-215q0 -144 -151 -301zM70 846v266h192v-266h-192z" />
<glyph unicode="&#x3c;" horiz-adv-x="804" d="M61 686v107l682 452v-155l-557 -349l557 -344v-151z" />
<glyph unicode="=" horiz-adv-x="1132" d="M61 504v129h1010v-129h-1010zM61 930v129h1010v-129h-1010z" />
<glyph unicode="&#x3e;" horiz-adv-x="804" d="M61 246v151l555 344l-555 349v155l682 -452v-107z" />
<glyph unicode="?" horiz-adv-x="751" d="M23 1157q3 69 7.5 117t12.5 98t20 83t31 65t44.5 51.5t61 34.5t80.5 21.5t103 6.5q101 0 166 -20.5t102.5 -68.5t51.5 -116t14 -174q0 -70 -17.5 -131.5t-45.5 -107.5t-61.5 -88.5t-67 -82t-61.5 -79.5t-45.5 -89.5t-17.5 -103.5q0 -55 19 -110h-162q-27 53 -27 129 q0 81 29.5 155t71.5 131t83.5 113t71 123.5t29.5 138.5q0 123 -29 171.5t-116 48.5q-41 0 -70 -14t-46.5 -38t-28 -69.5t-15.5 -93.5t-8 -125zM242 0v266h192v-266h-192z" />
<glyph unicode="@" horiz-adv-x="1208" d="M61 582q0 158 2 257.5t11.5 202.5t24 160.5t43 115t66 84t96 49.5t128.5 29.5t168 6.5q80 0 140 -3t112.5 -15t89.5 -24t68 -41.5t50.5 -55t34 -77t22 -95t12 -121.5t5.5 -144.5t1 -175.5q0 -132 -13 -228.5t-33.5 -153.5t-53.5 -90.5t-66.5 -44.5t-77.5 -11 q-64 0 -99 36.5t-47 92.5q-37 -129 -147 -129q-36 0 -62.5 3.5t-48 13.5t-35.5 22.5t-24.5 38t-16.5 51t-9 70.5t-4 87.5t-1 110.5q0 76 1.5 122.5t5.5 93t13 71.5t22.5 47.5t36 32t51 15t69.5 5.5q43 0 69.5 -24.5t47.5 -67.5q3 61 12 105h72v-541q0 -58 21.5 -97.5 t60.5 -39.5q26 0 42.5 7t33 31.5t26 70t15 124.5t5.5 193q0 110 -1.5 173.5t-8 134t-16.5 105.5t-31.5 73.5t-48 53.5t-71.5 29.5t-96.5 18t-127.5 3.5q-60 0 -103 -2.5t-83 -12.5t-66.5 -21.5t-50.5 -38t-38.5 -52.5t-26.5 -75.5t-17.5 -96.5t-9.5 -124.5t-5 -151.5 t-1 -186q0 -138 4 -237.5t18.5 -179.5t28.5 -131.5t49.5 -89.5t65.5 -57t91.5 -30t113 -13t143.5 -2q265 0 370 164l68 -119q-117 -194 -442 -194q-110 0 -186 5.5t-146.5 23t-114.5 44.5t-82.5 76.5t-59 111.5t-35 157t-19.5 206t-5 265zM510 610q0 -66 0.5 -101t4 -72.5 t9 -54.5t16.5 -32t26 -19.5t38 -4.5q41 0 64.5 41.5t23.5 113.5v267q-20 70 -39 99.5t-57 29.5q-59 0 -72.5 -46t-13.5 -221z" />
<glyph unicode="A" horiz-adv-x="862" d="M18 0l304 1526h215l307 -1526h-223l-62 367h-285l-63 -367h-193zM289 528h252l-123 668z" />
<glyph unicode="B" horiz-adv-x="897" d="M82 0v1526h321q80 0 141.5 -9.5t104 -24.5t72.5 -42.5t47 -55.5t26.5 -71t12 -80.5t2.5 -93.5q0 -280 -199 -328q131 -28 188.5 -117.5t57.5 -236.5q0 -70 -1.5 -109.5t-8.5 -96.5t-21.5 -89t-42 -69.5t-68 -56.5t-100.5 -32.5t-139 -13.5h-393zM274 150h148q38 0 69 4.5 t54 11t41 20.5t30 26.5t20 35.5t12.5 41t7 50t3 56t0.5 64q0 72 -7.5 117.5t-29 82.5t-63 53.5t-106.5 16.5h-179v-579zM274 874h154q60 0 97.5 18t55.5 56t23.5 79t5.5 106q0 71 -7.5 113t-29.5 71.5t-60.5 41t-102.5 11.5h-136v-496z" />
<glyph unicode="C" horiz-adv-x="909" d="M61 762q0 102 1 164.5t5 143t12 128.5t22 106t35 90.5t51 67t70 51.5t92.5 28t117.5 11q62 0 110 -6t86 -15t66 -30.5t48.5 -40.5t34 -57.5t22 -69.5t13.5 -88.5t7 -102t4 -122.5l-199 -27q-8 268 -35.5 334t-156.5 66q-34 0 -60 -8t-46 -28t-34 -44.5t-24 -67.5 t-15.5 -85.5t-8.5 -110.5t-4 -130.5t-1 -156.5q0 -84 0.5 -141.5t3 -120t6.5 -103t11 -83t17.5 -68t24.5 -49t33 -36t43 -19.5t54 -7q33 0 58 4t44 15t32 23.5t22 37.5t14 48t8.5 64t5 77t3.5 95v11t0.5 10.5t0.5 11.5l203 -16q-17 -228 -32 -301q-30 -135 -111 -188 q-83 -54 -248 -54q-73 0 -130 11t-99 40t-72 59.5t-49.5 89.5t-30.5 109t-16.5 138t-7 157t-1.5 185z" />
<glyph unicode="D" d="M82 0v1526h342q110 0 189 -19.5t131.5 -67t84 -103t47.5 -152t20.5 -187.5t4.5 -235q0 -135 -3 -219t-13 -174.5t-30 -141.5t-52.5 -101t-83 -73.5t-119 -38t-162.5 -14.5h-356zM283 168h159q43 0 76.5 7.5t59.5 26t44.5 41.5t31.5 62.5t20.5 80.5t12 104t6 124t1.5 148 q0 129 -2 201.5t-10.5 152.5t-25 119t-46.5 74.5t-74 48t-108 12.5h-145v-1202z" />
<glyph unicode="E" horiz-adv-x="722" d="M82 0v1526h586v-160h-383v-481h321l-14 -162h-307v-567h393v-156h-596z" />
<glyph unicode="F" horiz-adv-x="729" d="M82 0v1526h629v-160h-424v-506h344l-17 -162h-327v-698h-205z" />
<glyph unicode="G" horiz-adv-x="915" d="M61 772q0 108 1.5 171.5t6.5 149.5t16.5 136t30.5 110t49.5 93t72.5 64t99.5 43.5t131.5 12.5q54 0 97 -3.5t77.5 -14.5t61 -20t47 -32.5t34.5 -39.5t24.5 -53t16 -60t10 -74.5t6.5 -82.5t5 -97l-168 -41q-2 51 -3.5 80.5t-5 67.5t-8 59t-12 47t-17.5 39t-24.5 28t-34 21 t-43.5 10.5t-55 4.5q-33 0 -60 -8.5t-47.5 -21.5t-36.5 -39.5t-27 -52.5t-18.5 -70t-11.5 -83t-6.5 -100.5t-3 -113t-0.5 -130.5q0 -82 1 -138t3.5 -122.5t8 -110t14 -90.5t22 -76t31.5 -53.5t43.5 -35.5t56.5 -11q89 0 144.5 56.5t66.5 150.5v281h-190l27 159h354v-782 h-150l-18 145q-71 -172 -281 -172q-69 0 -122 20.5t-88.5 51t-60 92t-38 116t-20 151t-8 170t-1.5 198.5z" />
<glyph unicode="H" horiz-adv-x="923" d="M82 0v1526h205v-658h352v658h203v-1526h-203v709h-352v-709h-205z" />
<glyph unicode="I" horiz-adv-x="366" d="M82 0v1526h203v-1526h-203z" />
<glyph unicode="J" horiz-adv-x="753" d="M18 205l158 61q18 -70 51 -100.5t105 -30.5q89 0 114 47t25 174v1170h201v-1157q0 -59 -2.5 -100.5t-10.5 -86t-22.5 -74t-39.5 -57.5t-60.5 -43.5t-85.5 -25t-115 -9.5q-97 0 -159.5 27t-97.5 75t-61 130z" />
<glyph unicode="K" horiz-adv-x="880" d="M82 0v1526h203v-678l307 678h229l-268 -500l307 -1026h-235l-189 799l-151 -264v-535h-203z" />
<glyph unicode="L" horiz-adv-x="626" d="M82 0v1526h205v-1370h313v-156h-518z" />
<glyph unicode="M" horiz-adv-x="1148" d="M74 0v1526h241l265 -1211l268 1211h227v-1526h-168v1112l-235 -1112h-197l-246 1112v-1112h-155z" />
<glyph unicode="N" horiz-adv-x="911" d="M78 0v1526h211l370 -1057v1057h175v-1526h-209l-373 1055v-1055h-174z" />
<glyph unicode="O" d="M61 762q0 127 2.5 208t12 173.5t27 148t48.5 111t76.5 84.5t110 47t149.5 18q75 0 133 -11t101 -39.5t73.5 -58.5t50 -88.5t31 -108.5t17 -138.5t7 -158t1.5 -187.5t-1.5 -188t-7 -158.5t-17 -138t-31 -108t-50 -88.5t-73.5 -58t-101 -39t-133 -11q-85 0 -149.5 17.5 t-110 46t-76.5 84t-48.5 110.5t-27 147.5t-12 174t-2.5 209.5zM274 762q0 -93 1 -157.5t4.5 -131t10 -109.5t17.5 -85t26.5 -66t37.5 -43t50.5 -27t65.5 -8q29 0 52 5t41.5 17.5t33 27t25.5 41.5t18.5 52t13 68t8.5 80t4.5 97t2 110.5t0.5 128.5q0 77 -0.5 127.5t-2 110.5 t-4.5 97.5t-8.5 81t-13 69t-18.5 53t-25.5 42t-33 27.5t-41.5 18t-52 5q-49 0 -83.5 -14.5t-58.5 -51t-38 -80.5t-21.5 -123t-9.5 -158t-2 -204z" />
<glyph unicode="P" horiz-adv-x="849" d="M82 0v1526h264q115 0 198 -17.5t136 -49.5t84 -85t43 -115t12 -147q0 -120 -19.5 -204t-68.5 -150t-139 -98.5t-225 -32.5h-84v-627h-201zM283 786h108q73 0 119 19.5t69.5 63t31 95.5t7.5 134q0 57 -4 94t-16.5 72t-37 54t-65 30.5t-100.5 11.5h-112v-574z" />
<glyph unicode="Q" d="M61 762q0 127 2.5 208t12 173.5t27 148t48.5 111t76.5 84.5t110 47t149.5 18q75 0 133 -11t101 -39.5t73.5 -58.5t50 -88.5t31 -108.5t17 -138.5t7 -158t1.5 -187.5q0 -81 -0.5 -133.5t-2.5 -119.5t-6.5 -109.5t-11.5 -94.5t-18 -84.5t-26 -69.5t-35.5 -60t-46.5 -45.5 t-59.5 -36t-73.5 -21.5q79 -147 178 -226l-144 -108q-65 56 -120 144t-82 177q-62 4 -111.5 18t-87.5 33.5t-67.5 53t-50 67.5t-34.5 88.5t-22 103t-12.5 124t-5.5 139.5t-1 160zM274 762q0 -93 1 -157.5t4.5 -131t10 -109.5t17.5 -85t26.5 -66t37.5 -43t50.5 -27t65.5 -8 q29 0 52 5t41.5 17.5t33 27t25.5 41.5t18.5 52t13 68t8.5 80t4.5 97t2 110.5t0.5 128.5q0 77 -0.5 127.5t-2 110.5t-4.5 97.5t-8.5 81t-13 69t-18.5 53t-25.5 42t-33 27.5t-41.5 18t-52 5q-49 0 -83.5 -14.5t-58.5 -51t-38 -80.5t-21.5 -123t-9.5 -158t-2 -204z" />
<glyph unicode="R" horiz-adv-x="825" d="M82 0v1526h324q84 0 146 -9.5t105 -32t70 -51.5t42 -76t20.5 -98t5.5 -124q0 -187 -37.5 -293t-136.5 -133l186 -709h-225l-146 684h-151v-684h-203zM285 840h147q47 0 77.5 10t49.5 28t29 55t13 79.5t3 113.5q0 63 -3 98.5t-13 69t-30.5 49t-54 24.5t-85.5 9h-133v-536z " />
<glyph unicode="S" horiz-adv-x="817" d="M35 446l174 35q8 -198 44.5 -272t135.5 -74q103 0 138.5 59.5t35.5 196.5q0 73 -13.5 126t-44 94t-65.5 69t-94 63q-49 29 -85.5 56t-76 67.5t-64.5 85.5t-41 107.5t-16 136.5q0 174 81.5 265t275.5 91q80 0 138 -18t91.5 -46.5t53.5 -76t27.5 -92.5t10.5 -111l-161 -22 q-3 35 -5 54t-6.5 44.5t-11 39t-18 29t-27 23t-38.5 12.5t-52 5q-97 0 -130.5 -49.5t-33.5 -153.5q0 -76 25 -132.5t61 -88.5t98 -70q122 -69 173 -113q127 -112 148 -309q5 -44 5 -94q0 -204 -88.5 -307t-290.5 -103q-82 0 -138.5 17t-95.5 49.5t-63 92t-37 132.5t-20 182z " />
<glyph unicode="T" horiz-adv-x="739" d="M12 1366v160h717v-160h-260v-1366h-203v1366h-254z" />
<glyph unicode="U" horiz-adv-x="888" d="M78 440v1086h203v-920q0 -82 1 -132t4.5 -106.5t10.5 -88t18.5 -63.5t29 -47t42 -24.5t57.5 -9.5q32 0 56 9.5t41.5 25t29 46.5t19 63.5t11 87.5t4.5 107t1 132v920h205v-1086q0 -96 -7 -162t-29.5 -128t-62.5 -98t-106.5 -57.5t-161.5 -21.5q-93 0 -158.5 20.5 t-105.5 56.5t-63 96.5t-31 128.5t-8 165z" />
<glyph unicode="V" horiz-adv-x="862" d="M18 1526h220l204 -1176l209 1176h193l-307 -1526h-213z" />
<glyph unicode="W" horiz-adv-x="1327" d="M18 1526h218l155 -1219l174 1219h209l170 -1215l152 1215h213l-256 -1526h-199l-184 1227l-178 -1227h-220z" />
<glyph unicode="X" horiz-adv-x="876" d="M18 0l314 797l-287 729h207l192 -510l183 510h188l-280 -711l323 -815h-211l-221 590l-209 -590h-199z" />
<glyph unicode="Y" horiz-adv-x="782" d="M18 1526h199l182 -672l193 672h170l-268 -883v-643h-201v643z" />
<glyph unicode="Z" horiz-adv-x="720" d="M29 0v135l434 1229h-369v162h570v-131l-428 -1237h450v-158h-657z" />
<glyph unicode="[" horiz-adv-x="604" d="M61 -313v1996h482v-124h-324v-1743h324v-129h-482z" />
<glyph unicode="\" horiz-adv-x="512" d="M8 1526h121l375 -1526h-121z" />
<glyph unicode="]" horiz-adv-x="604" d="M61 -188h320v1744h-320v127h482v-1996h-482v125z" />
<glyph unicode="^" horiz-adv-x="995" d="M61 682l388 842h94l393 -842h-174l-266 610l-273 -610h-162z" />
<glyph unicode="_" horiz-adv-x="878" d="M8 -141h864v-113h-864v113z" />
<glyph unicode="`" horiz-adv-x="557" d="M18 1458l103 119l332 -260l-68 -76z" />
<glyph unicode="a" horiz-adv-x="808" d="M53 281q0 67 5 113.5t17.5 90.5t36 72t58.5 51.5t88 36t122 19t161 6.5v84q0 127 -26.5 174t-119.5 47q-81 0 -110 -42.5t-37 -152.5l-162 15q5 76 13.5 124.5t28 92.5t52 67.5t84.5 37t127 13.5q85 0 144.5 -16.5t97 -46.5t58.5 -81t28.5 -109.5t7.5 -143.5v-518 q0 -54 20 -71t56 -17l-17 -127q-183 0 -208 123q-41 -73 -104.5 -109.5t-172.5 -36.5q-70 0 -120.5 25t-77 70t-38.5 96t-12 113zM242 293q0 -89 23.5 -130.5t84.5 -41.5q153 0 191 198v238q-71 -4 -114 -9.5t-79.5 -18t-54.5 -28.5t-31 -46.5t-16.5 -67t-3.5 -94.5z" />
<glyph unicode="b" horiz-adv-x="845" d="M82 0v1614l197 35v-664q35 61 101.5 103t170.5 42q34 0 62 -6t50 -20t39.5 -30t30 -44.5t21.5 -53t15 -66.5t9.5 -74.5t5 -87.5t2 -95t0.5 -106q0 -62 -0.5 -99t-3.5 -92.5t-8.5 -90t-16 -78.5t-25.5 -71.5t-38 -56.5t-52 -45t-69 -26.5t-88 -10.5q-104 0 -163.5 40.5 t-106.5 125.5q0 -23 -9 -74t-22 -69h-102zM268 262q23 -61 68.5 -96t99.5 -35q37 0 63 9t44 32.5t28.5 52t16 81.5t7 106.5t1.5 140.5q0 70 -0.5 112t-2.5 90.5t-5.5 75t-10 55.5t-16 43t-23.5 26.5t-31.5 17t-41.5 4.5q-69 0 -119 -41t-78 -111v-563z" />
<glyph unicode="c" horiz-adv-x="792" d="M61 555q0 84 1.5 132.5t8.5 118t21 109.5t41 86.5t65.5 71t97 41t134.5 16.5q168 0 232.5 -80t72.5 -284l-157 -25q-8 134 -37 185t-111 51q-32 0 -57.5 -6.5t-44 -23t-31.5 -34t-21.5 -50t-13 -59t-7 -74t-3 -81.5t-0.5 -94t0.5 -94.5t2.5 -82t6.5 -74.5t12 -59.5 t19.5 -50.5t29 -34.5t40 -23.5t52 -7q40 0 69 12.5t47 32.5t29.5 55.5t16.5 72t8 91.5l157 -16q-2 -49 -6 -84.5t-13 -80t-23.5 -76t-39 -63.5t-57 -51.5t-80.5 -32t-108 -12.5q-72 0 -128 17t-93 42t-63 72t-39 87.5t-20 110.5t-8.5 118t-1.5 131z" />
<glyph unicode="d" horiz-adv-x="874" d="M61 522q0 70 1 118.5t4.5 106.5t10 97t17.5 82.5t27.5 72t39.5 55.5t53.5 42.5t70 24.5t88.5 9q85 0 143.5 -38t85.5 -97v619l191 35v-1649h-162q-15 46 -15 158q-74 -178 -258 -178q-47 0 -85.5 9.5t-67 24t-51 41t-37.5 52.5t-26 66.5t-16.5 74.5t-8.5 85.5t-4 90.5 t-1 98zM256 528q0 -48 0.5 -77t1.5 -67.5t3 -61t5.5 -51t9 -44.5t13 -35t17.5 -28.5t23.5 -18.5t30 -12.5t37.5 -3.5q89 0 135.5 54.5t69.5 152.5v510q-26 60 -75 94.5t-109 34.5q-33 0 -57 -9t-41.5 -23.5t-29 -44.5t-18.5 -60.5t-10.5 -83t-4.5 -101t-1 -125.5z" />
<glyph unicode="e" horiz-adv-x="841" d="M61 551q0 80 2 133.5t10 120t22.5 109.5t41 87.5t65 70t94.5 42t128 16.5q73 0 130.5 -16.5t94.5 -40.5t63.5 -67t39.5 -79t20.5 -95t8.5 -96.5t1 -100.5v-86h-538q0 -65 2 -109.5t8 -97.5t19.5 -87.5t35 -65.5t55.5 -45.5t80 -14.5q94 0 132.5 54t50.5 167l155 -22 q-21 -181 -99 -266t-251 -85q-58 0 -105.5 10.5t-83 27.5t-64 45.5t-47.5 58t-32.5 72t-21 80t-11.5 89.5t-5 93t-1 98zM248 664h354v81q0 56 -7 97.5t-25.5 77.5t-54.5 54.5t-89 18.5q-40 0 -69 -10t-48 -33t-30.5 -47.5t-18 -68t-8.5 -77.5t-4 -93z" />
<glyph unicode="f" horiz-adv-x="509" d="M-12 975l16 137h72v156q0 148 26.5 229t81 113t152.5 32q120 0 178 -65l-35 -137q-44 53 -106 53q-42 0 -62.5 -16.5t-31.5 -69t-11 -158.5v-137h234l-17 -137h-217v-975h-192v975h-88z" />
<glyph unicode="g" horiz-adv-x="770" d="M8 -195q0 133 54 195.5t174 81.5q-68 27 -95.5 65.5t-27.5 124.5q0 153 127 189q-160 79 -160 313q0 338 313 338q60 0 119 -18q46 149 111 209l114 -62q-82 -58 -141 -190q106 -81 106 -277q0 -74 -15 -137t-46 -114.5t-85 -81t-126 -29.5q-49 0 -72 2 q-30 -18 -41.5 -39t-11.5 -62q0 -39 24 -67.5t72 -28.5h109q108 0 180 -76.5t72 -230.5q0 -193 -77 -276t-247 -83h-172q-126 0 -192 69.5t-66 184.5zM178 -135q0 -105 52.5 -140.5t183.5 -35.5q110 0 154 41.5t44 144.5q0 95 -42.5 128.5t-145.5 33.5q-133 0 -189.5 -34 t-56.5 -138zM266 770q0 -128 27 -181.5t100 -53.5t101 52.5t28 182.5q0 128 -27 175.5t-102 47.5q-74 0 -100.5 -49t-26.5 -174z" />
<glyph unicode="h" horiz-adv-x="882" d="M82 0v1614l192 35v-682q52 79 118 121t165 42q244 0 244 -296v-834h-193v844q0 62 -33.5 96.5t-95.5 34.5q-70 0 -114.5 -39.5t-90.5 -134.5v-801h-192z" />
<glyph unicode="i" horiz-adv-x="356" d="M82 0v1112h192v-1112h-192zM82 1339v267h192v-267h-192z" />
<glyph unicode="j" horiz-adv-x="382" d="M-137 -383l37 137q34 -49 108 -49q40 0 60 18.5t30.5 78t10.5 178.5v1132h192v-1186q0 -148 -26.5 -229t-81.5 -113.5t-152 -32.5q-120 0 -178 66zM109 1339v267h192v-267h-192z" />
<glyph unicode="k" horiz-adv-x="806" d="M82 0v1614l192 35v-1014l271 477h225l-223 -319l250 -793h-230l-143 610l-150 -200v-410h-192z" />
<glyph unicode="l" horiz-adv-x="356" d="M82 0v1614l192 35v-1649h-192z" />
<glyph unicode="m" horiz-adv-x="1306" d="M82 0v1112h162q17 -141 18 -162q49 92 107 136t141 44q182 0 227 -172q50 89 105.5 130.5t138.5 41.5q244 0 244 -296v-834h-191v813q0 83 -27 122.5t-96 39.5q-47 0 -81.5 -36t-75.5 -128v-811h-191v844q0 131 -123 131q-48 0 -86 -39t-80 -135v-801h-192z" />
<glyph unicode="n" horiz-adv-x="882" d="M82 0v1112h162q18 -139 18 -162q51 90 122 135t173 45q244 0 244 -296v-834h-193v844q0 62 -33.5 96.5t-95.5 34.5q-70 0 -114.5 -39.5t-90.5 -134.5v-801h-192z" />
<glyph unicode="o" horiz-adv-x="878" d="M61 551q0 73 1 114t5.5 105t14.5 100.5t27.5 84t45.5 74t66.5 53t93 37.5t123.5 11t124.5 -11t94 -37.5t67 -52.5t45.5 -74.5t27.5 -84t14.5 -100.5t5 -104.5t1 -114.5q0 -66 -0.5 -100.5t-4 -93t-10 -91t-19.5 -79t-32 -72t-47.5 -56t-65.5 -46t-87.5 -26t-112.5 -10.5 q-69 0 -124 11t-93.5 37.5t-66.5 52t-45 74t-27.5 83.5t-14.5 99.5t-5 103.5t-1 113zM254 551q0 -106 2 -158.5t11 -114t28.5 -87.5t54 -44t88.5 -18q30 0 54 5.5t42 13.5t32 26t23.5 34t15.5 47t10 56t5.5 69.5t2 78.5t0.5 92q0 66 -0.5 103.5t-3 86.5t-7.5 75t-14 57 t-22.5 46.5t-32.5 30t-45 20t-60 5.5q-54 0 -88.5 -18t-54 -44t-28.5 -88t-11 -114.5t-2 -159.5z" />
<glyph unicode="p" horiz-adv-x="866" d="M82 -449v1561h162q9 -79 12 -160q39 86 100.5 133.5t159.5 47.5q46 0 84.5 -9.5t67 -24.5t51 -41.5t38 -53t26 -67t16.5 -75t9 -85.5t4 -90.5t1 -96.5q0 -78 -1.5 -133t-6.5 -118t-14.5 -105.5t-24.5 -86t-38.5 -71.5t-55 -50.5t-74 -33t-96.5 -10.5q-72 0 -139 41 t-93 94v-566h-188zM270 264q21 -51 71 -89t116 -38q32 0 56 9t41 24t28.5 45t18 60.5t10 83t4.5 100t1 123.5q0 48 -0.5 77t-1.5 67.5t-3 61t-5.5 51t-9 44.5t-13 35t-17.5 28.5t-23.5 18.5t-30 12.5t-37.5 3.5q-89 0 -134.5 -54.5t-70.5 -154.5v-508z" />
<glyph unicode="q" horiz-adv-x="843" d="M59 563q0 62 0.5 99.5t3.5 93t8.5 90t15.5 79t25 71.5t37.5 56.5t51.5 45.5t68 26.5t87 10.5q105 0 165 -42t108 -126q0 69 28 145h105v-1561h-197v572q-35 -58 -103 -99.5t-169 -41.5q-56 0 -96.5 15.5t-66 56t-40.5 80t-21.5 118.5t-8 139t-1.5 172zM246 557 q0 -67 0.5 -110t2.5 -90t6 -74.5t10.5 -56.5t16.5 -43.5t23.5 -27.5t31.5 -17.5t42 -4.5q69 0 120.5 40.5t78.5 109.5v565q-29 64 -73.5 97.5t-96.5 33.5q-44 0 -72.5 -15t-47 -42.5t-27.5 -82.5t-12 -117.5t-3 -164.5z" />
<glyph unicode="r" horiz-adv-x="573" d="M82 0v1112h151q17 -100 17 -182q41 87 123 134.5t190 47.5l-16 -192q-134 0 -194.5 -54t-78.5 -172v-694h-192z" />
<glyph unicode="s" horiz-adv-x="731" d="M43 319l166 25q0 -103 30.5 -162t108.5 -59q92 0 126 40t34 122q0 86 -41.5 134.5t-132.5 90.5q-133 62 -193.5 135.5t-60.5 206.5q0 137 65 207.5t226 70.5q59 0 100 -5t71.5 -18.5t49 -30t33 -48.5t22.5 -64.5t17 -86.5l-152 -29q-11 74 -34.5 101.5t-88.5 27.5 q-64 0 -96.5 -27t-32.5 -92q0 -64 24.5 -106t88.5 -78q19 -11 57 -30.5t55 -29t46.5 -27.5t43.5 -31t34.5 -33.5t30 -41t20 -47.5t14.5 -59.5t4 -71.5q0 -163 -79 -246.5t-249 -83.5q-158 0 -232.5 81.5t-74.5 264.5z" />
<glyph unicode="t" horiz-adv-x="561" d="M-2 975l14 137h70v281l192 32v-313h279l-16 -137h-263v-690q0 -60 28 -97.5t63 -37.5q42 0 67.5 22t50.5 72l80 -119q-29 -59 -92 -97t-156 -38q-233 0 -233 270v715h-84z" />
<glyph unicode="u" horiz-adv-x="843" d="M82 279v833h190v-846q0 -62 31 -96.5t92 -34.5q71 0 114 40t81 134v803h194v-1112h-161q-8 20 -13.5 73t-5.5 87q-44 -90 -110 -134t-168 -44q-244 0 -244 297z" />
<glyph unicode="v" horiz-adv-x="759" d="M18 1112h213l166 -811l164 811h180l-272 -1112h-164z" />
<glyph unicode="w" horiz-adv-x="1075" d="M18 1112h199l117 -797l129 797h172l127 -797l119 797h176l-221 -1112h-152l-135 817l-139 -817h-177z" />
<glyph unicode="x" horiz-adv-x="700" d="M18 0l240 594l-209 518h174l131 -332l121 332h160l-201 -504l248 -608h-180l-164 420l-152 -420h-168z" />
<glyph unicode="y" horiz-adv-x="757" d="M-12 -414q13 28 41 81t41 81q28 -22 61 -22q48 0 94.5 67t79.5 215l-289 1104h213l172 -809l156 809h182l-288 -1194q-17 -69 -32.5 -117.5t-41 -99t-57.5 -81t-80 -50t-109 -19.5q-87 0 -143 35z" />
<glyph unicode="z" horiz-adv-x="663" d="M27 0v119l368 850h-311v143h514v-119l-377 -852h418v-141h-612z" />
<glyph unicode="{" horiz-adv-x="694" d="M20 633v147h76q75 0 101 60.5t26 201.5v357q0 79 25 137t68 88.5t91 44.5t103 14h123v-124h-105q-55 0 -86 -19.5t-50 -82.5t-19 -179v-299q0 -113 -42.5 -176t-135.5 -94q98 -43 138 -110.5t40 -186.5v-308q0 -78 7 -131.5t19 -84t33.5 -47t42.5 -21t55 -4.5h103v-129 h-115q-57 0 -105.5 15t-93 49.5t-70.5 100t-26 156.5v344q0 155 -28 218t-99 63h-76z" />
<glyph unicode="|" horiz-adv-x="266" d="M61 -377v2054h146v-2054h-146z" />
<glyph unicode="}" horiz-adv-x="698" d="M61 -184h101q35 0 56 4.5t42.5 21t33 47t18.5 84t7 131.5v308q0 116 43.5 186t135.5 107q-179 64 -179 288v285q0 74 -6.5 125t-18 82t-32 47.5t-42.5 21.5t-56 5h-103v124h123q55 0 103 -14t91 -44.5t68 -88.5t25 -137v-361q0 -136 26.5 -197t98.5 -61h78v-147h-78 q-68 0 -96.5 -62t-28.5 -209v-354q0 -73 -17.5 -130.5t-45.5 -92.5t-67.5 -58t-78.5 -31.5t-82 -8.5h-119v129z" />
<glyph unicode="~" horiz-adv-x="1150" d="M61 481v191q103 135 265 135q65 0 135.5 -19t121.5 -41.5t113.5 -41.5t112.5 -19q116 0 281 188v-188q-62 -68 -130 -100.5t-159 -32.5q-56 0 -122 19t-117 41.5t-114.5 41.5t-115.5 19q-115 0 -271 -193z" />
<glyph unicode="&#xa1;" horiz-adv-x="360" d="M59 -449l39 1125h164l39 -1125h-242zM84 887v266h192v-266h-192z" />
<glyph unicode="&#xa2;" horiz-adv-x="788" d="M61 780q0 55 0.5 86.5t2.5 80.5t6 78.5t11 70.5t18.5 66.5t27.5 56t38 49.5t49.5 37.5t64 29t79.5 15.5v176h134v-176q128 -12 181.5 -94.5t61.5 -266.5l-157 -22q-8 134 -40 180.5t-118 46.5q-39 0 -67.5 -12t-46.5 -39.5t-29 -58.5t-16.5 -84t-7 -99.5t-1.5 -120.5 q0 -60 0.5 -94.5t2.5 -82t6.5 -74.5t12 -59.5t19.5 -50.5t29 -34.5t40 -23.5t52 -7q41 0 69.5 12t46.5 32t29.5 55.5t16.5 73t8 94.5l157 -21q-4 -63 -9.5 -106.5t-21.5 -97t-41 -88.5t-70 -63t-107 -38v-207h-134v205q-48 4 -87 17.5t-68 31t-51.5 47.5t-37.5 56.5t-25 70 t-15.5 76.5t-8.5 87.5t-3.5 91t-0.5 97.5z" />
<glyph unicode="&#xa3;" horiz-adv-x="960" d="M27 133q0 69 41 116.5t131 47.5q84 0 194 -82q23 68 23 156q0 106 -43 256h-221l16 131h164q-4 12 -25 68t-27.5 75t-21.5 68t-20.5 79.5t-11 74.5t-5.5 85q0 190 69 273.5t242 83.5q55 0 97 -5.5t74 -22.5t54 -32t38 -50.5t24.5 -61.5t15 -81t9 -92t6.5 -112l-164 -23 q-2 42 -3.5 61.5t-4.5 55t-6 52.5t-9 44.5t-13.5 40.5t-19 30t-25 25t-32 13.5t-41.5 5.5q-83 0 -111 -46t-28 -161q0 -59 13 -124.5t26.5 -106t41.5 -115.5t38 -102h285l-17 -131h-239q24 -76 24 -191q0 -158 -61 -289q69 -57 139 -57q168 0 178 203l105 -29q6 -34 6 -65 q0 -113 -78 -184.5t-176 -71.5q-70 0 -122 29t-120 89q-89 -96 -235 -96q-101 0 -137.5 44.5t-36.5 123.5zM131 131q0 -29 21 -51.5t59 -22.5q85 0 143 72q-27 23 -44 36t-44.5 26.5t-50.5 13.5q-41 0 -62.5 -21t-21.5 -53z" />
<glyph unicode="&#xa5;" horiz-adv-x="659" d="M25 1526h155l162 -529l158 529h141l-229 -711v-172h155v-119h-155v-190h155v-119h-155v-215h-158v215h-154v119h154v190h-154v119h154v172z" />
<glyph unicode="&#xa7;" horiz-adv-x="739" d="M45 209l166 24q0 -58 12 -105t44.5 -81.5t82.5 -34.5q92 0 126 41t34 123q0 87 -43 140.5t-127 91.5q-132 57 -195 130.5t-63 202.5q0 116 47 184t160 87q-103 54 -152 124.5t-49 186.5q0 137 65 208t228 71q87 0 138.5 -11.5t83 -44.5t45 -76t24.5 -122l-152 -29 q-11 74 -34.5 101.5t-88.5 27.5q-63 0 -95 -27t-32 -92q0 -67 26 -111t103 -83q21 -11 61.5 -30t57.5 -28t47.5 -27.5t43.5 -33t31.5 -39.5t26 -52.5t13.5 -65.5t6 -85q0 -230 -158 -299q51 -33 81.5 -65t50.5 -86.5t20 -130.5q0 -162 -79.5 -246t-248.5 -84 q-158 0 -232.5 81.5t-74.5 264.5zM252 748q0 -93 27 -135t104 -42q81 0 110 40.5t29 131.5q0 95 -31 130.5t-102 35.5q-74 0 -105.5 -35.5t-31.5 -125.5z" />
<glyph unicode="&#xa8;" horiz-adv-x="624" d="M61 1255v246h168v-246h-168zM395 1255v246h168v-246h-168z" />
<glyph unicode="&#xa9;" horiz-adv-x="1589" d="M61 760q0 392 189.5 590t554.5 198q362 0 542.5 -195t180.5 -593q0 -393 -186.5 -591t-536.5 -198q-362 0 -553 197.5t-191 591.5zM186 760q0 -146 33.5 -263t91 -195t137.5 -130t168.5 -75t188.5 -23q99 0 185 23t162.5 75t131 130t86 195t31.5 263t-31.5 263 t-85.5 195.5t-130 131.5t-163 76.5t-186 23.5t-188 -23.5t-169 -76t-137.5 -131t-91 -196t-33.5 -263.5zM418 754q0 215 97.5 325.5t277.5 110.5q172 0 257 -68t91 -227l-113 -14q-2 66 -21 111t-53.5 67t-72 30.5t-88.5 8.5q-113 0 -184.5 -85t-71.5 -259 q0 -177 69.5 -259.5t186.5 -82.5q47 0 86.5 10.5t73 34t53.5 66.5t22 102l113 -9q-18 -297 -348 -297q-375 0 -375 435z" />
<glyph unicode="&#xaa;" horiz-adv-x="571" d="M61 1014q0 51 3 83t14 62.5t30.5 47.5t53.5 31t82.5 19t117.5 5v36q0 70 -15.5 93.5t-67.5 23.5q-45 0 -61 -26.5t-21 -92.5l-115 11q4 68 12.5 107t29.5 70t58.5 43.5t98.5 12.5q69 0 112.5 -15.5t67 -50t31.5 -78t8 -112.5v-323q0 -21 11.5 -28t35.5 -7l-12 -105h-17 q-105 0 -121 80q-45 -88 -170 -88q-61 0 -100 31t-52.5 73.5t-13.5 96.5zM190 1020q0 -43 18 -67.5t50 -24.5q41 0 63.5 24t40.5 82v131q-105 -4 -138.5 -32.5t-33.5 -112.5z" />
<glyph unicode="&#xab;" horiz-adv-x="677" d="M23 596l313 369l49 -54l-225 -315l225 -313l-49 -52zM297 596l313 369l49 -54l-225 -315l225 -313l-49 -52z" />
<glyph unicode="&#xad;" horiz-adv-x="448" d="M23 537l16 129h389l-16 -129h-389z" />
<glyph unicode="&#xae;" horiz-adv-x="1030" d="M61 1079q0 228 118.5 347.5t342.5 119.5q447 0 447 -467q0 -469 -447 -469q-225 0 -343 118t-118 351zM131 1079q0 -84 21.5 -152.5t58 -115t86.5 -78t106.5 -45.5t118.5 -14q77 0 143 23t119.5 70.5t84 127t30.5 184.5q0 104 -30 183t-83 126t-119 70t-145 23 q-80 0 -148 -22.5t-123.5 -68.5t-87.5 -126t-32 -185zM360 844v479h175q83 0 120 -32t37 -99q0 -35 -23 -74.5t-61 -50.5l111 -223h-101l-88 205h-81v-205h-89zM449 1122h98q63 0 63 68q0 34 -18 47.5t-55 13.5h-88v-129z" />
<glyph unicode="&#xaf;" horiz-adv-x="839" d="M59 1280v133h721v-133h-721z" />
<glyph unicode="&#xb0;" horiz-adv-x="526" d="M61 1331q0 98 49.5 157.5t153.5 59.5t153.5 -59.5t49.5 -157.5q0 -96 -51 -156.5t-152 -60.5q-103 0 -153 60t-50 157zM125 1331q0 -69 33 -112t106 -43q70 0 104.5 43.5t34.5 111.5q0 70 -34.5 113t-104.5 43q-139 0 -139 -156z" />
<glyph unicode="&#xb2;" horiz-adv-x="587" d="M61 1460q3 61 5 89.5t7.5 72.5t15 63.5t26 45.5t41 36.5t59.5 18.5t82 8q122 0 166.5 -62t44.5 -216q0 -149 -76.5 -297.5t-181.5 -268.5h276l-6 -123h-452v115q125 116 214 271t89 303q0 84 -20 119.5t-64 35.5q-52 0 -69 -46.5t-25 -182.5z" />
<glyph unicode="&#xb3;" horiz-adv-x="600" d="M61 1034l125 39q11 -74 33 -105.5t74 -31.5q65 0 86.5 41.5t21.5 140.5q0 78 -21 110t-89 32h-82l12 120h70q51 0 71.5 28.5t20.5 104.5q0 91 -20 124.5t-66 33.5q-44 0 -61 -29t-25 -114l-131 14q4 74 14.5 119t35 76.5t64 44t103.5 12.5q59 0 99.5 -13.5t63.5 -34.5 t35.5 -58.5t15.5 -72t3 -89.5q0 -88 -21 -130t-69 -69q62 -17 88.5 -66t26.5 -151q0 -59 -3 -95.5t-16.5 -79.5t-38.5 -67t-72 -40.5t-114 -16.5q-66 0 -110 14.5t-69 46t-36.5 68.5t-18.5 94z" />
<glyph unicode="&#xb4;" horiz-adv-x="555" d="M102 1290l332 258l103 -121l-365 -215z" />
<glyph unicode="&#xb5;" horiz-adv-x="768" d="M82 -449v1561h149v-893q18 -100 140 -100q62 0 98 47.5t63 136.5v809h154v-1112h-115q-16 47 -16 119q-65 -139 -188 -139q-50 0 -78 12.5t-58 40.5v-482h-149z" />
<glyph unicode="&#xb6;" horiz-adv-x="956" d="M27 -248l30 113q57 -41 129 -41q39 0 66 7.5t49.5 27.5t33.5 59t11 98v1057q-140 10 -208 69t-68 152q0 101 81 166.5t238 65.5h543l-94 -180v-1639h-154v1362h-182v-1065q0 -305 -303 -305q-107 0 -172 53z" />
<glyph unicode="&#xb7;" horiz-adv-x="313" d="M61 629v266h193v-266h-193z" />
<glyph unicode="&#xb8;" horiz-adv-x="473" d="M61 -367l25 62q61 -23 102 -23q52 0 85.5 26t33.5 75q0 52 -33.5 71.5t-111.5 24.5l24 141h72l-6 -98q86 0 123 -41.5t37 -118.5q0 -70 -56 -110.5t-143 -40.5q-84 0 -152 32z" />
<glyph unicode="&#xb9;" horiz-adv-x="407" d="M61 1661q66 10 109.5 42.5t77.5 90.5h98v-967h-147v760q-56 -45 -121 -45z" />
<glyph unicode="&#xba;" horiz-adv-x="610" d="M61 1178q0 41 0.5 63t2.5 58.5t6.5 57.5t12.5 50t20.5 45.5t31 35.5t42 29t56 16.5t72.5 6.5q70 0 117.5 -21.5t72 -49.5t37.5 -83.5t15 -95t2 -112.5q0 -40 -0.5 -64t-2.5 -59.5t-6.5 -57.5t-13 -50.5t-21 -45.5t-31 -36t-42 -29t-56 -16.5t-71.5 -6.5q-70 0 -118 21.5 t-72.5 49.5t-37 84.5t-14.5 95.5t-2 114zM199 1178q0 -58 1.5 -92t7.5 -67.5t17.5 -50t31 -26.5t48.5 -10t48 10t30.5 27t17.5 50t7.5 67.5t1.5 91.5q0 56 -1.5 90t-7.5 66.5t-17.5 49.5t-30.5 27t-48 10t-48.5 -10t-31 -26.5t-17.5 -50t-7.5 -67t-1.5 -89.5z" />
<glyph unicode="&#xbb;" horiz-adv-x="677" d="M23 283l225 313l-225 315l49 54l313 -369l-313 -365zM297 283l225 313l-225 315l49 54l313 -369l-313 -365z" />
<glyph unicode="&#xbc;" horiz-adv-x="1462" d="M88 1491q66 10 109 42.5t77 90.5h99v-967h-148v760q-56 -45 -121 -45zM297 -205l586 1807h143l-590 -1807h-139zM866 16v101l262 663h166v-639h54l-13 -125h-41v-186h-147v186h-281zM997 141h150v371z" />
<glyph unicode="&#xbd;" horiz-adv-x="1466" d="M88 1491q66 10 109 42.5t77 90.5h99v-967h-148v760q-56 -45 -121 -45zM297 -205l586 1807h143l-590 -1807h-139zM924 463q7 159 23 211q25 84 101 109q44 14 111 14q122 0 166.5 -62t44.5 -217q0 -149 -76.5 -297t-181.5 -268h277l-7 -123h-452v115q125 117 214 271 t89 302q0 85 -20 120.5t-64 35.5q-52 0 -69 -46.5t-25 -183.5z" />
<glyph unicode="&#xbe;" horiz-adv-x="1462" d="M88 864l125 39q12 -74 33 -105.5t73 -31.5q66 0 87.5 41.5t21.5 140.5q0 78 -21.5 110t-89.5 32h-81l12 120h69q51 0 72 28.5t21 104.5q0 91 -20 124.5t-66 33.5q-44 0 -61 -29t-25 -114l-132 14q8 145 51.5 198.5t166.5 53.5q59 0 99.5 -13.5t63.5 -34.5t35.5 -58.5 t15.5 -72t3 -89.5q0 -88 -21 -130t-69 -69q62 -17 88 -66t26 -151q0 -41 -1.5 -68.5t-6.5 -62t-15 -56.5t-27.5 -45.5t-43 -36.5t-63.5 -21.5t-86 -8.5q-66 0 -110 14.5t-69 46t-36.5 68.5t-18.5 94zM381 -205l586 1807h143l-590 -1807h-139zM866 16v101l262 663h166v-639 h54l-13 -125h-41v-186h-147v186h-281zM997 141h150v371z" />
<glyph unicode="&#xbf;" horiz-adv-x="768" d="M35 -70q0 70 17.5 132t45 108t61 88t67.5 81.5t61.5 78.5t45 88.5t17.5 103.5q0 58 -18 113h160q28 -47 28 -131q0 -81 -29.5 -155t-71 -131t-83 -112.5t-71 -123t-29.5 -138.5q0 -123 28 -172t115 -49q41 0 70 14.5t46.5 38.5t28 69.5t15.5 93t8 124.5l182 -24 q-3 -68 -7.5 -116t-12.5 -98t-20 -83t-31 -65t-44.5 -51.5t-61 -34.5t-80.5 -21.5t-103 -6.5q-101 0 -166 20.5t-102.5 68.5t-51.5 116t-14 174zM311 920v266h193v-266h-193z" />
<glyph unicode="&#xc0;" horiz-adv-x="862" d="M18 0l304 1526h215l307 -1526h-223l-62 367h-285l-63 -367h-193zM163 1872l103 119l332 -260l-68 -76zM289 528h252l-123 668z" />
<glyph unicode="&#xc1;" horiz-adv-x="862" d="M18 0l304 1526h215l307 -1526h-223l-62 367h-285l-63 -367h-193zM258 1704l332 258l102 -121l-364 -215zM289 528h252l-123 668z" />
<glyph unicode="&#xc2;" horiz-adv-x="862" d="M18 0l304 1526h215l307 -1526h-223l-62 367h-285l-63 -367h-193zM206 1733l156 260h131l160 -262l-107 -51l-120 213l-121 -217zM289 528h252l-123 668z" />
<glyph unicode="&#xc3;" horiz-adv-x="862" d="M18 0l304 1526h215l307 -1526h-223l-62 367h-285l-63 -367h-193zM98 1759q43 170 181 170q47 0 101 -24.5t101 -49t78 -24.5q57 0 78 113l121 -39q-24 -94 -74 -138.5t-115 -44.5q-45 0 -98.5 23t-101 46.5t-78.5 23.5q-45 0 -80 -111zM289 528h252l-123 668z" />
<glyph unicode="&#xc4;" horiz-adv-x="862" d="M18 0l304 1526h215l307 -1526h-223l-62 367h-285l-63 -367h-193zM178 1669v246h168v-246h-168zM289 528h252l-123 668zM512 1669v246h168v-246h-168z" />
<glyph unicode="&#xc5;" horiz-adv-x="862" d="M18 0l304 1526h215l307 -1526h-223l-62 367h-285l-63 -367h-193zM225 1731q0 174 205 174q203 0 203 -174q0 -177 -203 -177q-205 0 -205 177zM289 528h252l-123 668zM307 1731q0 -105 123 -105t123 105q0 104 -123 104t-123 -104z" />
<glyph unicode="&#xc6;" horiz-adv-x="1101" d="M29 0l268 1526h768v-160h-356v-481h292l-14 -162h-278v-567h358v-156h-549v387h-225l-55 -387h-209zM315 551h203v815h-86z" />
<glyph unicode="&#xc7;" horiz-adv-x="909" d="M61 762q0 102 1 164.5t5 143t12 128.5t22 106t35 90.5t51 67t70 51.5t92.5 28t117.5 11q62 0 110 -6t86 -15t66 -30.5t48.5 -40.5t34 -57.5t22 -69.5t13.5 -88.5t7 -102t4 -122.5l-199 -27q-8 268 -35.5 334t-156.5 66q-34 0 -60 -8t-46 -28t-34 -44.5t-24 -67.5 t-15.5 -85.5t-8.5 -110.5t-4 -130.5t-1 -156.5q0 -84 0.5 -141.5t3 -120t6.5 -103t11 -83t17.5 -68t24.5 -49t33 -36t43 -19.5t54 -7q33 0 58 4t44 15t32 23.5t22 37.5t14 48t8.5 64t5 77t3.5 95v11t0.5 10.5t0.5 11.5l203 -16q-17 -227 -33 -300q-29 -134 -110 -187 q-80 -53 -242 -56l-4 -61q87 0 123.5 -41.5t36.5 -118.5q0 -70 -56 -110.5t-143 -40.5q-80 0 -151 32l26 62q61 -23 103 -23q52 0 85 26t33 75q0 50 -33.5 70.5t-111.5 25.5l20 108q-70 6 -122.5 28t-88.5 51.5t-60.5 87t-38 109t-20.5 144t-8.5 166t-1.5 199.5z" />
<glyph unicode="&#xc8;" horiz-adv-x="722" d="M82 0v1526h586v-160h-383v-481h321l-14 -162h-307v-567h393v-156h-596zM94 1872l103 119l332 -260l-68 -76z" />
<glyph unicode="&#xc9;" horiz-adv-x="722" d="M82 0v1526h586v-160h-383v-481h321l-14 -162h-307v-567h393v-156h-596zM188 1704l332 258l103 -121l-365 -215z" />
<glyph unicode="&#xca;" horiz-adv-x="722" d="M82 0v1526h586v-160h-383v-481h321l-14 -162h-307v-567h393v-156h-596zM137 1733l156 260h131l160 -262l-107 -51l-120 213l-121 -217z" />
<glyph unicode="&#xcb;" horiz-adv-x="722" d="M82 0v1526h586v-160h-383v-481h321l-14 -162h-307v-567h393v-156h-596zM109 1669v246h167v-246h-167zM442 1669v246h168v-246h-168z" />
<glyph unicode="&#xcc;" horiz-adv-x="366" d="M-78 1872l103 119l332 -260l-68 -76zM82 0v1526h203v-1526h-203z" />
<glyph unicode="&#xcd;" horiz-adv-x="366" d="M16 1704l332 258l103 -121l-365 -215zM82 0v1526h203v-1526h-203z" />
<glyph unicode="&#xce;" horiz-adv-x="366" d="M-35 1733l156 260h131l160 -262l-107 -51l-120 213l-121 -217zM82 0v1526h203v-1526h-203z" />
<glyph unicode="&#xcf;" horiz-adv-x="366" d="M-63 1669v246h167v-246h-167zM82 0v1526h203v-1526h-203zM270 1669v246h168v-246h-168z" />
<glyph unicode="&#xd0;" d="M8 725v162h74v639h342q110 0 189 -19.5t131.5 -67t84 -103t47.5 -152t20.5 -187.5t4.5 -235q0 -135 -3 -219t-13 -174.5t-30 -141.5t-52.5 -101t-83 -73.5t-119 -38t-162.5 -14.5h-356v725h-74zM283 168h159q43 0 76.5 7.5t59.5 26t44.5 41.5t31.5 62.5t20.5 80.5t12 104 t6 124t1.5 148q0 129 -2 201.5t-10.5 152.5t-25 119t-46.5 74.5t-74 48t-108 12.5h-145v-483h247l-16 -162h-231v-557z" />
<glyph unicode="&#xd1;" horiz-adv-x="911" d="M78 0v1526h211l370 -1057v1057h175v-1526h-209l-373 1055v-1055h-174zM124 1760q43 170 181 170q47 0 101 -25t101 -49.5t78 -24.5q57 0 78 113l121 -39q-24 -94 -73.5 -138t-115.5 -44q-45 0 -98.5 23t-101 46t-78.5 23q-45 0 -80 -111z" />
<glyph unicode="&#xd2;" d="M61 762q0 127 2.5 208t12 173.5t27 148t48.5 111t76.5 84.5t110 47t149.5 18q75 0 133 -11t101 -39.5t73.5 -58.5t50 -88.5t31 -108.5t17 -138.5t7 -158t1.5 -187.5t-1.5 -188t-7 -158.5t-17 -138t-31 -108t-50 -88.5t-73.5 -58t-101 -39t-133 -11q-85 0 -149.5 17.5 t-110 46t-76.5 84t-48.5 110.5t-27 147.5t-12 174t-2.5 209.5zM215 1872l103 119l332 -260l-68 -76zM274 762q0 -93 1 -157.5t4.5 -131t10 -109.5t17.5 -85t26.5 -66t37.5 -43t50.5 -27t65.5 -8q29 0 52 5t41.5 17.5t33 27t25.5 41.5t18.5 52t13 68t8.5 80t4.5 97t2 110.5 t0.5 128.5q0 77 -0.5 127.5t-2 110.5t-4.5 97.5t-8.5 81t-13 69t-18.5 53t-25.5 42t-33 27.5t-41.5 18t-52 5q-49 0 -83.5 -14.5t-58.5 -51t-38 -80.5t-21.5 -123t-9.5 -158t-2 -204z" />
<glyph unicode="&#xd3;" d="M61 762q0 127 2.5 208t12 173.5t27 148t48.5 111t76.5 84.5t110 47t149.5 18q75 0 133 -11t101 -39.5t73.5 -58.5t50 -88.5t31 -108.5t17 -138.5t7 -158t1.5 -187.5t-1.5 -188t-7 -158.5t-17 -138t-31 -108t-50 -88.5t-73.5 -58t-101 -39t-133 -11q-85 0 -149.5 17.5 t-110 46t-76.5 84t-48.5 110.5t-27 147.5t-12 174t-2.5 209.5zM274 762q0 -93 1 -157.5t4.5 -131t10 -109.5t17.5 -85t26.5 -66t37.5 -43t50.5 -27t65.5 -8q29 0 52 5t41.5 17.5t33 27t25.5 41.5t18.5 52t13 68t8.5 80t4.5 97t2 110.5t0.5 128.5q0 77 -0.5 127.5t-2 110.5 t-4.5 97.5t-8.5 81t-13 69t-18.5 53t-25.5 42t-33 27.5t-41.5 18t-52 5q-49 0 -83.5 -14.5t-58.5 -51t-38 -80.5t-21.5 -123t-9.5 -158t-2 -204zM309 1704l332 258l102 -121l-364 -215z" />
<glyph unicode="&#xd4;" d="M61 762q0 127 2.5 208t12 173.5t27 148t48.5 111t76.5 84.5t110 47t149.5 18q75 0 133 -11t101 -39.5t73.5 -58.5t50 -88.5t31 -108.5t17 -138.5t7 -158t1.5 -187.5t-1.5 -188t-7 -158.5t-17 -138t-31 -108t-50 -88.5t-73.5 -58t-101 -39t-133 -11q-85 0 -149.5 17.5 t-110 46t-76.5 84t-48.5 110.5t-27 147.5t-12 174t-2.5 209.5zM258 1733l156 260h131l160 -262l-107 -51l-120 213l-121 -217zM274 762q0 -93 1 -157.5t4.5 -131t10 -109.5t17.5 -85t26.5 -66t37.5 -43t50.5 -27t65.5 -8q29 0 52 5t41.5 17.5t33 27t25.5 41.5t18.5 52t13 68 t8.5 80t4.5 97t2 110.5t0.5 128.5q0 77 -0.5 127.5t-2 110.5t-4.5 97.5t-8.5 81t-13 69t-18.5 53t-25.5 42t-33 27.5t-41.5 18t-52 5q-49 0 -83.5 -14.5t-58.5 -51t-38 -80.5t-21.5 -123t-9.5 -158t-2 -204z" />
<glyph unicode="&#xd5;" d="M61 762q0 127 2.5 208t12 173.5t27 148t48.5 111t76.5 84.5t110 47t149.5 18q75 0 133 -11t101 -39.5t73.5 -58.5t50 -88.5t31 -108.5t17 -138.5t7 -158t1.5 -187.5t-1.5 -188t-7 -158.5t-17 -138t-31 -108t-50 -88.5t-73.5 -58t-101 -39t-133 -11q-85 0 -149.5 17.5 t-110 46t-76.5 84t-48.5 110.5t-27 147.5t-12 174t-2.5 209.5zM150 1759q43 170 180 170q47 0 101 -24.5t101 -49t78 -24.5q57 0 78 113l121 -39q-24 -94 -73.5 -138.5t-114.5 -44.5q-45 0 -98.5 23t-101.5 46.5t-79 23.5q-45 0 -80 -111zM274 762q0 -93 1 -157.5t4.5 -131 t10 -109.5t17.5 -85t26.5 -66t37.5 -43t50.5 -27t65.5 -8q29 0 52 5t41.5 17.5t33 27t25.5 41.5t18.5 52t13 68t8.5 80t4.5 97t2 110.5t0.5 128.5q0 77 -0.5 127.5t-2 110.5t-4.5 97.5t-8.5 81t-13 69t-18.5 53t-25.5 42t-33 27.5t-41.5 18t-52 5q-49 0 -83.5 -14.5 t-58.5 -51t-38 -80.5t-21.5 -123t-9.5 -158t-2 -204z" />
<glyph unicode="&#xd6;" d="M61 762q0 127 2.5 208t12 173.5t27 148t48.5 111t76.5 84.5t110 47t149.5 18q75 0 133 -11t101 -39.5t73.5 -58.5t50 -88.5t31 -108.5t17 -138.5t7 -158t1.5 -187.5t-1.5 -188t-7 -158.5t-17 -138t-31 -108t-50 -88.5t-73.5 -58t-101 -39t-133 -11q-85 0 -149.5 17.5 t-110 46t-76.5 84t-48.5 110.5t-27 147.5t-12 174t-2.5 209.5zM229 1669v246h168v-246h-168zM274 762q0 -93 1 -157.5t4.5 -131t10 -109.5t17.5 -85t26.5 -66t37.5 -43t50.5 -27t65.5 -8q29 0 52 5t41.5 17.5t33 27t25.5 41.5t18.5 52t13 68t8.5 80t4.5 97t2 110.5 t0.5 128.5q0 77 -0.5 127.5t-2 110.5t-4.5 97.5t-8.5 81t-13 69t-18.5 53t-25.5 42t-33 27.5t-41.5 18t-52 5q-49 0 -83.5 -14.5t-58.5 -51t-38 -80.5t-21.5 -123t-9.5 -158t-2 -204zM563 1669v246h168v-246h-168z" />
<glyph unicode="&#xd7;" horiz-adv-x="894" d="M61 465l295 295l-295 297l91 90l294 -297l297 297l91 -90l-295 -297l295 -295l-91 -92l-297 297l-294 -297z" />
<glyph unicode="&#xd8;" d="M61 762q0 127 2.5 208t12 173.5t27 148t48.5 111t76.5 84.5t110 47t149.5 18q138 0 220 -43l30 84l97 -43l-39 -108q30 -37 50 -89.5t31 -106.5t17 -140.5t7 -155.5t1 -188q0 -118 -1.5 -188t-7 -158.5t-17 -138t-31 -108t-50 -88.5t-73.5 -58t-101 -39t-133 -11 q-132 0 -213 37l-32 -88l-95 39l39 111q-34 36 -57.5 87.5t-37 107t-20.5 141.5t-8.5 160.5t-1.5 193.5zM274 762q0 -287 17 -404l344 953q-46 82 -148 82q-49 0 -83.5 -14.5t-58.5 -51t-38 -80.5t-21.5 -123t-9.5 -158t-2 -204zM342 201q48 -66 145 -66q29 0 52 5 t41.5 17.5t33 27t25.5 41.5t18.5 52t13 68t8.5 80t4.5 97t2 110.5t0.5 128.5q0 266 -8 358z" />
<glyph unicode="&#xd9;" horiz-adv-x="888" d="M78 440v1086h203v-920q0 -82 1 -132t4.5 -106.5t10.5 -88t18.5 -63.5t29 -47t42 -24.5t57.5 -9.5q32 0 56 9.5t41.5 25t29 46.5t19 63.5t11 87.5t4.5 107t1 132v920h205v-1086q0 -96 -7 -162t-29.5 -128t-62.5 -98t-106.5 -57.5t-161.5 -21.5q-93 0 -158.5 20.5 t-105.5 56.5t-63 96.5t-31 128.5t-8 165zM178 1872l103 119l332 -260l-68 -76z" />
<glyph unicode="&#xda;" horiz-adv-x="888" d="M78 440v1086h203v-920q0 -82 1 -132t4.5 -106.5t10.5 -88t18.5 -63.5t29 -47t42 -24.5t57.5 -9.5q32 0 56 9.5t41.5 25t29 46.5t19 63.5t11 87.5t4.5 107t1 132v920h205v-1086q0 -96 -7 -162t-29.5 -128t-62.5 -98t-106.5 -57.5t-161.5 -21.5q-93 0 -158.5 20.5 t-105.5 56.5t-63 96.5t-31 128.5t-8 165zM272 1704l332 258l103 -121l-365 -215z" />
<glyph unicode="&#xdb;" horiz-adv-x="888" d="M78 440v1086h203v-920q0 -82 1 -132t4.5 -106.5t10.5 -88t18.5 -63.5t29 -47t42 -24.5t57.5 -9.5q32 0 56 9.5t41.5 25t29 46.5t19 63.5t11 87.5t4.5 107t1 132v920h205v-1086q0 -96 -7 -162t-29.5 -128t-62.5 -98t-106.5 -57.5t-161.5 -21.5q-93 0 -158.5 20.5 t-105.5 56.5t-63 96.5t-31 128.5t-8 165zM219 1733l156 260h131l160 -262l-107 -51l-120 213l-121 -217z" />
<glyph unicode="&#xdc;" horiz-adv-x="888" d="M78 440v1086h203v-920q0 -82 1 -132t4.5 -106.5t10.5 -88t18.5 -63.5t29 -47t42 -24.5t57.5 -9.5q32 0 56 9.5t41.5 25t29 46.5t19 63.5t11 87.5t4.5 107t1 132v920h205v-1086q0 -96 -7 -162t-29.5 -128t-62.5 -98t-106.5 -57.5t-161.5 -21.5q-93 0 -158.5 20.5 t-105.5 56.5t-63 96.5t-31 128.5t-8 165zM193 1669v246h167v-246h-167zM526 1669v246h168v-246h-168z" />
<glyph unicode="&#xdd;" horiz-adv-x="782" d="M18 1526h199l182 -672l193 672h170l-268 -883v-643h-201v643zM217 1704l332 258l103 -121l-365 -215z" />
<glyph unicode="&#xde;" horiz-adv-x="849" d="M82 0v1526h203v-299h-4q89 0 148.5 -2t119 -9.5t95 -19.5t69.5 -34t51.5 -51.5t31.5 -73.5t18.5 -97.5t4.5 -126.5q0 -112 -13 -189t-43 -136t-83.5 -92.5t-130.5 -49.5t-189 -16h-75v-330h-203zM283 487h102q130 0 181.5 74.5t51.5 239.5q0 144 -49.5 202t-177.5 58 h-108v-574z" />
<glyph unicode="&#xdf;" horiz-adv-x="911" d="M82 0v1217q0 232 76.5 332t265.5 100q69 0 124.5 -11.5t94.5 -30.5t67.5 -49.5t45 -63t26.5 -77t13.5 -85.5t3.5 -93q0 -178 -41.5 -256.5t-147.5 -108.5q95 -14 147.5 -51t78.5 -119.5t26 -228.5q0 -81 -1.5 -126t-7 -103.5t-17.5 -88.5t-33.5 -67t-53.5 -54t-79 -34 t-109.5 -23t-144.5 -6v158q57 0 94.5 5.5t65.5 22.5t43.5 39.5t25 66t12 92t2.5 126.5q0 74 -8 123t-30 90.5t-65 62.5t-110 23l-4 152q100 0 131 62.5t31 215.5q0 162 -33 222.5t-141 60.5q-40 0 -66 -11.5t-44.5 -36.5t-28 -73.5t-13.5 -113.5t-4 -166v-1094h-192z" />
<glyph unicode="&#xe0;" horiz-adv-x="808" d="M53 281q0 67 5 113.5t17.5 90.5t36 72t58.5 51.5t88 36t122 19t161 6.5v84q0 127 -26.5 174t-119.5 47q-81 0 -110 -42.5t-37 -152.5l-162 15q5 76 13.5 124.5t28 92.5t52 67.5t84.5 37t127 13.5q85 0 144.5 -16.5t97 -46.5t58.5 -81t28.5 -109.5t7.5 -143.5v-518 q0 -54 20 -71t56 -17l-17 -127q-183 0 -208 123q-41 -73 -104.5 -109.5t-172.5 -36.5q-70 0 -120.5 25t-77 70t-38.5 96t-12 113zM137 1458l103 119l332 -260l-68 -76zM242 293q0 -89 23.5 -130.5t84.5 -41.5q153 0 191 198v238q-71 -4 -114 -9.5t-79.5 -18t-54.5 -28.5 t-31 -46.5t-16.5 -67t-3.5 -94.5z" />
<glyph unicode="&#xe1;" horiz-adv-x="808" d="M53 281q0 67 5 113.5t17.5 90.5t36 72t58.5 51.5t88 36t122 19t161 6.5v84q0 127 -26.5 174t-119.5 47q-81 0 -110 -42.5t-37 -152.5l-162 15q5 76 13.5 124.5t28 92.5t52 67.5t84.5 37t127 13.5q85 0 144.5 -16.5t97 -46.5t58.5 -81t28.5 -109.5t7.5 -143.5v-518 q0 -54 20 -71t56 -17l-17 -127q-183 0 -208 123q-41 -73 -104.5 -109.5t-172.5 -36.5q-70 0 -120.5 25t-77 70t-38.5 96t-12 113zM233 1290l332 258l103 -121l-365 -215zM242 293q0 -89 23.5 -130.5t84.5 -41.5q153 0 191 198v238q-71 -4 -114 -9.5t-79.5 -18t-54.5 -28.5 t-31 -46.5t-16.5 -67t-3.5 -94.5z" />
<glyph unicode="&#xe2;" horiz-adv-x="808" d="M53 281q0 67 5 113.5t17.5 90.5t36 72t58.5 51.5t88 36t122 19t161 6.5v84q0 127 -26.5 174t-119.5 47q-81 0 -110 -42.5t-37 -152.5l-162 15q5 76 13.5 124.5t28 92.5t52 67.5t84.5 37t127 13.5q85 0 144.5 -16.5t97 -46.5t58.5 -81t28.5 -109.5t7.5 -143.5v-518 q0 -54 20 -71t56 -17l-17 -127q-183 0 -208 123q-41 -73 -104.5 -109.5t-172.5 -36.5q-70 0 -120.5 25t-77 70t-38.5 96t-12 113zM180 1319l156 260h131l160 -262l-107 -51l-120 213l-121 -217zM242 293q0 -89 23.5 -130.5t84.5 -41.5q153 0 191 198v238q-71 -4 -114 -9.5 t-79.5 -18t-54.5 -28.5t-31 -46.5t-16.5 -67t-3.5 -94.5z" />
<glyph unicode="&#xe3;" horiz-adv-x="808" d="M53 281q0 67 5 113.5t17.5 90.5t36 72t58.5 51.5t88 36t122 19t161 6.5v84q0 127 -26.5 174t-119.5 47q-81 0 -110 -42.5t-37 -152.5l-162 15q5 76 13.5 124.5t28 92.5t52 67.5t84.5 37t127 13.5q85 0 144.5 -16.5t97 -46.5t58.5 -81t28.5 -109.5t7.5 -143.5v-518 q0 -54 20 -71t56 -17l-17 -127q-183 0 -208 123q-41 -73 -104.5 -109.5t-172.5 -36.5q-70 0 -120.5 25t-77 70t-38.5 96t-12 113zM72 1346q43 170 180 170q47 0 101 -25t101 -49.5t78 -24.5q57 0 78 113l121 -39q-24 -94 -73.5 -138t-114.5 -44q-45 0 -98.5 23t-101.5 46 t-79 23q-45 0 -80 -111zM242 293q0 -89 23.5 -130.5t84.5 -41.5q153 0 191 198v238q-71 -4 -114 -9.5t-79.5 -18t-54.5 -28.5t-31 -46.5t-16.5 -67t-3.5 -94.5z" />
<glyph unicode="&#xe4;" horiz-adv-x="808" d="M53 281q0 67 5 113.5t17.5 90.5t36 72t58.5 51.5t88 36t122 19t161 6.5v84q0 127 -26.5 174t-119.5 47q-81 0 -110 -42.5t-37 -152.5l-162 15q5 76 13.5 124.5t28 92.5t52 67.5t84.5 37t127 13.5q85 0 144.5 -16.5t97 -46.5t58.5 -81t28.5 -109.5t7.5 -143.5v-518 q0 -54 20 -71t56 -17l-17 -127q-183 0 -208 123q-41 -73 -104.5 -109.5t-172.5 -36.5q-70 0 -120.5 25t-77 70t-38.5 96t-12 113zM153 1255v246h168v-246h-168zM242 293q0 -89 23.5 -130.5t84.5 -41.5q153 0 191 198v238q-71 -4 -114 -9.5t-79.5 -18t-54.5 -28.5t-31 -46.5 t-16.5 -67t-3.5 -94.5zM487 1255v246h168v-246h-168z" />
<glyph unicode="&#xe5;" horiz-adv-x="808" d="M53 281q0 67 5 113.5t17.5 90.5t36 72t58.5 51.5t88 36t122 19t161 6.5v84q0 127 -26.5 174t-119.5 47q-81 0 -110 -42.5t-37 -152.5l-162 15q5 76 13.5 124.5t28 92.5t52 67.5t84.5 37t127 13.5q85 0 144.5 -16.5t97 -46.5t58.5 -81t28.5 -109.5t7.5 -143.5v-518 q0 -54 20 -71t56 -17l-17 -127q-183 0 -208 123q-41 -73 -104.5 -109.5t-172.5 -36.5q-70 0 -120.5 25t-77 70t-38.5 96t-12 113zM201 1368q0 174 205 174q202 0 202 -174q0 -176 -202 -176q-205 0 -205 176zM242 293q0 -89 23.5 -130.5t84.5 -41.5q153 0 191 198v238 q-71 -4 -114 -9.5t-79.5 -18t-54.5 -28.5t-31 -46.5t-16.5 -67t-3.5 -94.5zM283 1368q0 -104 123 -104q122 0 122 104q0 105 -122 105q-123 0 -123 -105z" />
<glyph unicode="&#xe6;" horiz-adv-x="1331" d="M61 281q0 77 6.5 129t25.5 99t52 75t88 48.5t132 29t184 8.5v84q0 127 -26.5 174t-119.5 47q-82 0 -110.5 -43.5t-36.5 -151.5l-162 15q5 76 13.5 124.5t28 92.5t52 67.5t84.5 37t127 13.5q207 0 250 -141q27 67 94 104t168 37q57 0 104.5 -10t82 -26t62 -43t45.5 -53 t30.5 -65t19 -70t10.5 -76t4.5 -75.5t0.5 -76.5v-86h-537q0 -57 1 -94.5t5.5 -85.5t12 -79.5t22.5 -65t35.5 -52t51.5 -31t71 -12.5q97 0 134 51.5t48 169.5l156 -22q-21 -181 -99 -266t-251 -85q-127 0 -190 47t-93 140q-25 -61 -58.5 -99t-101 -63t-168.5 -25 q-70 0 -120.5 26t-77 71.5t-38.5 96.5t-12 110zM252 293q0 -90 23 -131t83 -41q80 0 126 49.5t65 148.5v238q-71 -4 -114 -9.5t-79.5 -18t-54.5 -28t-30.5 -46.5t-15.5 -67t-3 -95zM735 664h357v8q0 42 -0.5 63t-2.5 57.5t-6.5 56t-12.5 46.5t-21 41.5t-31.5 29.5t-44 21 t-58.5 6q-35 0 -61.5 -8.5t-45 -22t-31.5 -38.5t-20.5 -48t-12 -62t-6 -69.5t-3.5 -80.5z" />
<glyph unicode="&#xe7;" horiz-adv-x="792" d="M61 555q0 84 1.5 132.5t8.5 118t21 109.5t41 86.5t65.5 71t97 41t134.5 16.5q168 0 232.5 -80t72.5 -284l-157 -25q-8 134 -37 185t-111 51q-32 0 -57.5 -6.5t-44 -23t-31.5 -34t-21.5 -50t-13 -59t-7 -74t-3 -81.5t-0.5 -94t0.5 -94.5t2.5 -82t6.5 -74.5t12 -59.5 t19.5 -50.5t29 -34.5t40 -23.5t52 -7q40 0 69 12.5t47 32.5t29.5 55.5t16.5 72t8 91.5l157 -16q-2 -48 -6 -84t-13 -79t-23 -74.5t-37.5 -63.5t-54.5 -52t-76 -33t-101 -14l-4 -65q88 0 125 -41.5t37 -118.5q0 -70 -57 -110.5t-142 -40.5q-82 0 -153 32l26 62 q58 -23 103 -23q50 0 84 26t34 75q0 50 -33.5 70.5t-111.5 25.5l18 113q-70 6 -122 28.5t-83.5 67t-50.5 87.5t-27 118t-10 127.5t-2 144.5z" />
<glyph unicode="&#xe8;" horiz-adv-x="841" d="M61 551q0 80 2 133.5t10 120t22.5 109.5t41 87.5t65 70t94.5 42t128 16.5q73 0 130.5 -16.5t94.5 -40.5t63.5 -67t39.5 -79t20.5 -95t8.5 -96.5t1 -100.5v-86h-538q0 -65 2 -109.5t8 -97.5t19.5 -87.5t35 -65.5t55.5 -45.5t80 -14.5q94 0 132.5 54t50.5 167l155 -22 q-21 -181 -99 -266t-251 -85q-58 0 -105.5 10.5t-83 27.5t-64 45.5t-47.5 58t-32.5 72t-21 80t-11.5 89.5t-5 93t-1 98zM153 1458l103 119l332 -260l-68 -76zM248 664h354v81q0 56 -7 97.5t-25.5 77.5t-54.5 54.5t-89 18.5q-40 0 -69 -10t-48 -33t-30.5 -47.5t-18 -68 t-8.5 -77.5t-4 -93z" />
<glyph unicode="&#xe9;" horiz-adv-x="841" d="M61 551q0 80 2 133.5t10 120t22.5 109.5t41 87.5t65 70t94.5 42t128 16.5q73 0 130.5 -16.5t94.5 -40.5t63.5 -67t39.5 -79t20.5 -95t8.5 -96.5t1 -100.5v-86h-538q0 -65 2 -109.5t8 -97.5t19.5 -87.5t35 -65.5t55.5 -45.5t80 -14.5q94 0 132.5 54t50.5 167l155 -22 q-21 -181 -99 -266t-251 -85q-58 0 -105.5 10.5t-83 27.5t-64 45.5t-47.5 58t-32.5 72t-21 80t-11.5 89.5t-5 93t-1 98zM248 664h354v81q0 56 -7 97.5t-25.5 77.5t-54.5 54.5t-89 18.5q-40 0 -69 -10t-48 -33t-30.5 -47.5t-18 -68t-8.5 -77.5t-4 -93zM250 1290l332 258 l102 -121l-365 -215z" />
<glyph unicode="&#xea;" horiz-adv-x="841" d="M61 551q0 80 2 133.5t10 120t22.5 109.5t41 87.5t65 70t94.5 42t128 16.5q73 0 130.5 -16.5t94.5 -40.5t63.5 -67t39.5 -79t20.5 -95t8.5 -96.5t1 -100.5v-86h-538q0 -65 2 -109.5t8 -97.5t19.5 -87.5t35 -65.5t55.5 -45.5t80 -14.5q94 0 132.5 54t50.5 167l155 -22 q-21 -181 -99 -266t-251 -85q-58 0 -105.5 10.5t-83 27.5t-64 45.5t-47.5 58t-32.5 72t-21 80t-11.5 89.5t-5 93t-1 98zM196 1319l156 260h131l160 -262l-107 -51l-120 213l-121 -217zM248 664h354v81q0 56 -7 97.5t-25.5 77.5t-54.5 54.5t-89 18.5q-40 0 -69 -10t-48 -33 t-30.5 -47.5t-18 -68t-8.5 -77.5t-4 -93z" />
<glyph unicode="&#xeb;" horiz-adv-x="841" d="M61 551q0 80 2 133.5t10 120t22.5 109.5t41 87.5t65 70t94.5 42t128 16.5q73 0 130.5 -16.5t94.5 -40.5t63.5 -67t39.5 -79t20.5 -95t8.5 -96.5t1 -100.5v-86h-538q0 -65 2 -109.5t8 -97.5t19.5 -87.5t35 -65.5t55.5 -45.5t80 -14.5q94 0 132.5 54t50.5 167l155 -22 q-21 -181 -99 -266t-251 -85q-58 0 -105.5 10.5t-83 27.5t-64 45.5t-47.5 58t-32.5 72t-21 80t-11.5 89.5t-5 93t-1 98zM170 1255v246h168v-246h-168zM248 664h354v81q0 56 -7 97.5t-25.5 77.5t-54.5 54.5t-89 18.5q-40 0 -69 -10t-48 -33t-30.5 -47.5t-18 -68t-8.5 -77.5 t-4 -93zM504 1255v246h168v-246h-168z" />
<glyph unicode="&#xec;" horiz-adv-x="358" d="M-82 1458l102 119l332 -260l-67 -76zM82 0v1112h194v-1112h-194z" />
<glyph unicode="&#xed;" horiz-adv-x="358" d="M12 1290l332 258l102 -121l-364 -215zM82 0v1112h194v-1112h-194z" />
<glyph unicode="&#xee;" horiz-adv-x="358" d="M-41 1319l156 260h131l160 -262l-107 -51l-121 213l-121 -217zM82 0v1112h194v-1112h-194z" />
<glyph unicode="&#xef;" horiz-adv-x="358" d="M-68 1255v246h168v-246h-168zM82 0v1112h194v-1112h-194zM266 1255v246h168v-246h-168z" />
<glyph unicode="&#xf0;" horiz-adv-x="919" d="M61 520q0 83 1 128t7 112t17 104t33 81.5t53.5 66.5t79.5 37.5t110 15.5q182 0 283 -64q-4 212 -49 304l-176 -95l-27 84l162 88q-65 94 -193 97l35 147q241 -13 326 -156l106 60l29 -84l-104 -53q40 -117 51.5 -294.5t11.5 -484.5q0 -85 -0.5 -128.5t-4 -112.5 t-10 -103.5t-19.5 -85t-32 -75t-47 -55.5t-66 -44t-88 -23t-112 -10t-112 9.5t-87 23t-65.5 41.5t-47 51t-31.5 67t-19.5 74t-10 86.5t-4 90.5t-0.5 100zM254 520q0 -98 2 -146.5t11 -105.5t28.5 -81t54 -41t88.5 -17q30 0 54 5t42 12.5t32 24.5t23.5 32t15.5 43.5t10 51.5 t5.5 64t2 72.5t0.5 85.5q0 86 -2.5 139.5t-10 101.5t-20.5 73t-37 44t-55.5 25t-79.5 6q-34 0 -59.5 -8.5t-43 -21t-29 -40.5t-18 -52.5t-10 -73t-4 -86.5t-0.5 -107z" />
<glyph unicode="&#xf1;" horiz-adv-x="882" d="M82 0v1112h162q18 -139 18 -162q51 90 122 135t173 45q244 0 244 -296v-834h-193v844q0 62 -33.5 96.5t-95.5 34.5q-70 0 -114.5 -39.5t-90.5 -134.5v-801h-192zM110 1346q43 170 181 170q47 0 101 -25t101 -49.5t78 -24.5q57 0 78 113l121 -39q-24 -94 -73.5 -138 t-115.5 -44q-45 0 -98.5 23t-101 46t-78.5 23q-45 0 -80 -111z" />
<glyph unicode="&#xf2;" horiz-adv-x="878" d="M61 551q0 73 1 114t5.5 105t14.5 100.5t27.5 84t45.5 74t66.5 53t93 37.5t123.5 11t124.5 -11t94 -37.5t67 -52.5t45.5 -74.5t27.5 -84t14.5 -100.5t5 -104.5t1 -114.5q0 -66 -0.5 -100.5t-4 -93t-10 -91t-19.5 -79t-32 -72t-47.5 -56t-65.5 -46t-87.5 -26t-112.5 -10.5 q-69 0 -124 11t-93.5 37.5t-66.5 52t-45 74t-27.5 83.5t-14.5 99.5t-5 103.5t-1 113zM172 1458l103 119l332 -260l-68 -76zM254 551q0 -106 2 -158.5t11 -114t28.5 -87.5t54 -44t88.5 -18q30 0 54 5.5t42 13.5t32 26t23.5 34t15.5 47t10 56t5.5 69.5t2 78.5t0.5 92 q0 66 -0.5 103.5t-3 86.5t-7.5 75t-14 57t-22.5 46.5t-32.5 30t-45 20t-60 5.5q-54 0 -88.5 -18t-54 -44t-28.5 -88t-11 -114.5t-2 -159.5z" />
<glyph unicode="&#xf3;" horiz-adv-x="878" d="M61 551q0 73 1 114t5.5 105t14.5 100.5t27.5 84t45.5 74t66.5 53t93 37.5t123.5 11t124.5 -11t94 -37.5t67 -52.5t45.5 -74.5t27.5 -84t14.5 -100.5t5 -104.5t1 -114.5q0 -66 -0.5 -100.5t-4 -93t-10 -91t-19.5 -79t-32 -72t-47.5 -56t-65.5 -46t-87.5 -26t-112.5 -10.5 q-69 0 -124 11t-93.5 37.5t-66.5 52t-45 74t-27.5 83.5t-14.5 99.5t-5 103.5t-1 113zM254 551q0 -106 2 -158.5t11 -114t28.5 -87.5t54 -44t88.5 -18q30 0 54 5.5t42 13.5t32 26t23.5 34t15.5 47t10 56t5.5 69.5t2 78.5t0.5 92q0 66 -0.5 103.5t-3 86.5t-7.5 75t-14 57 t-22.5 46.5t-32.5 30t-45 20t-60 5.5q-54 0 -88.5 -18t-54 -44t-28.5 -88t-11 -114.5t-2 -159.5zM266 1290l332 258l102 -121l-364 -215z" />
<glyph unicode="&#xf4;" horiz-adv-x="878" d="M61 551q0 73 1 114t5.5 105t14.5 100.5t27.5 84t45.5 74t66.5 53t93 37.5t123.5 11t124.5 -11t94 -37.5t67 -52.5t45.5 -74.5t27.5 -84t14.5 -100.5t5 -104.5t1 -114.5q0 -66 -0.5 -100.5t-4 -93t-10 -91t-19.5 -79t-32 -72t-47.5 -56t-65.5 -46t-87.5 -26t-112.5 -10.5 q-69 0 -124 11t-93.5 37.5t-66.5 52t-45 74t-27.5 83.5t-14.5 99.5t-5 103.5t-1 113zM215 1319l156 260h131l160 -262l-107 -51l-120 213l-121 -217zM254 551q0 -106 2 -158.5t11 -114t28.5 -87.5t54 -44t88.5 -18q30 0 54 5.5t42 13.5t32 26t23.5 34t15.5 47t10 56 t5.5 69.5t2 78.5t0.5 92q0 66 -0.5 103.5t-3 86.5t-7.5 75t-14 57t-22.5 46.5t-32.5 30t-45 20t-60 5.5q-54 0 -88.5 -18t-54 -44t-28.5 -88t-11 -114.5t-2 -159.5z" />
<glyph unicode="&#xf5;" horiz-adv-x="878" d="M61 551q0 73 1 114t5.5 105t14.5 100.5t27.5 84t45.5 74t66.5 53t93 37.5t123.5 11t124.5 -11t94 -37.5t67 -52.5t45.5 -74.5t27.5 -84t14.5 -100.5t5 -104.5t1 -114.5q0 -66 -0.5 -100.5t-4 -93t-10 -91t-19.5 -79t-32 -72t-47.5 -56t-65.5 -46t-87.5 -26t-112.5 -10.5 q-69 0 -124 11t-93.5 37.5t-66.5 52t-45 74t-27.5 83.5t-14.5 99.5t-5 103.5t-1 113zM109 1346q43 170 180 170q47 0 101 -25t101 -49.5t78 -24.5q57 0 78 113l121 -39q-24 -94 -73.5 -138t-114.5 -44q-45 0 -98.5 23t-101.5 46t-79 23q-45 0 -80 -111zM254 551 q0 -106 2 -158.5t11 -114t28.5 -87.5t54 -44t88.5 -18q30 0 54 5.5t42 13.5t32 26t23.5 34t15.5 47t10 56t5.5 69.5t2 78.5t0.5 92q0 66 -0.5 103.5t-3 86.5t-7.5 75t-14 57t-22.5 46.5t-32.5 30t-45 20t-60 5.5q-54 0 -88.5 -18t-54 -44t-28.5 -88t-11 -114.5t-2 -159.5z " />
<glyph unicode="&#xf6;" horiz-adv-x="878" d="M61 551q0 73 1 114t5.5 105t14.5 100.5t27.5 84t45.5 74t66.5 53t93 37.5t123.5 11t124.5 -11t94 -37.5t67 -52.5t45.5 -74.5t27.5 -84t14.5 -100.5t5 -104.5t1 -114.5q0 -66 -0.5 -100.5t-4 -93t-10 -91t-19.5 -79t-32 -72t-47.5 -56t-65.5 -46t-87.5 -26t-112.5 -10.5 q-69 0 -124 11t-93.5 37.5t-66.5 52t-45 74t-27.5 83.5t-14.5 99.5t-5 103.5t-1 113zM188 1255v246h168v-246h-168zM254 551q0 -106 2 -158.5t11 -114t28.5 -87.5t54 -44t88.5 -18q30 0 54 5.5t42 13.5t32 26t23.5 34t15.5 47t10 56t5.5 69.5t2 78.5t0.5 92q0 66 -0.5 103.5 t-3 86.5t-7.5 75t-14 57t-22.5 46.5t-32.5 30t-45 20t-60 5.5q-54 0 -88.5 -18t-54 -44t-28.5 -88t-11 -114.5t-2 -159.5zM522 1255v246h168v-246h-168z" />
<glyph unicode="&#xf7;" horiz-adv-x="1085" d="M61 696v129h963v-129h-963zM446 203v266h193v-266h-193zM446 1049v266h193v-266h-193z" />
<glyph unicode="&#xf8;" horiz-adv-x="878" d="M61 551q0 73 1 114t5.5 105t14.5 100.5t27.5 84t45.5 74t66.5 53t93 37.5t123.5 11q86 0 148 -18l32 88l97 -45l-33 -90q32 -24 56 -56t38.5 -74.5t23 -80t12 -96.5t4.5 -98t1 -109q0 -66 -0.5 -100.5t-4 -93t-10 -91t-19.5 -79t-32 -72t-47.5 -56t-65.5 -46t-87.5 -26 t-112.5 -10.5q-78 0 -143 19l-27 -74l-94 39l27 76q-29 20 -51.5 48.5t-37 56.5t-25 70.5t-15.5 74.5t-7.5 85.5t-3 86t-0.5 92.5zM254 453q0 -13 0.5 -42t1 -42t2 -35t3.5 -35.5t5.5 -28.5t7.5 -28l256 714q-40 19 -92 19q-54 0 -88.5 -18t-54 -44t-28.5 -88t-11 -114.5 t-2 -159.5v-49.5v-48.5zM348 145q37 -16 90 -16q30 0 54 5.5t42 13.5t32 26t23.5 34t15.5 47t10 56t5.5 69.5t2 78.5t0.5 92q0 218 -19 299z" />
<glyph unicode="&#xf9;" horiz-adv-x="843" d="M82 279v833h190v-846q0 -62 31 -96.5t92 -34.5q71 0 114 40t81 134v803h194v-1112h-161q-8 20 -13.5 73t-5.5 87q-44 -90 -110 -134t-168 -44q-244 0 -244 297zM155 1458l103 119l332 -260l-68 -76z" />
<glyph unicode="&#xfa;" horiz-adv-x="843" d="M82 279v833h190v-846q0 -62 31 -96.5t92 -34.5q71 0 114 40t81 134v803h194v-1112h-161q-8 20 -13.5 73t-5.5 87q-44 -90 -110 -134t-168 -44q-244 0 -244 297zM250 1290l332 258l102 -121l-365 -215z" />
<glyph unicode="&#xfb;" horiz-adv-x="843" d="M82 279v833h190v-846q0 -62 31 -96.5t92 -34.5q71 0 114 40t81 134v803h194v-1112h-161q-8 20 -13.5 73t-5.5 87q-44 -90 -110 -134t-168 -44q-244 0 -244 297zM198 1319l156 260h131l160 -262l-107 -51l-120 213l-121 -217z" />
<glyph unicode="&#xfc;" horiz-adv-x="843" d="M82 279v833h190v-846q0 -62 31 -96.5t92 -34.5q71 0 114 40t81 134v803h194v-1112h-161q-8 20 -13.5 73t-5.5 87q-44 -90 -110 -134t-168 -44q-244 0 -244 297zM170 1255v246h168v-246h-168zM504 1255v246h168v-246h-168z" />
<glyph unicode="&#xfd;" horiz-adv-x="757" d="M-12 -414q13 28 41 81t41 81q28 -22 61 -22q48 0 94.5 67t79.5 215l-289 1104h213l172 -809l156 809h182l-288 -1194q-17 -69 -32.5 -117.5t-41 -99t-57.5 -81t-80 -50t-109 -19.5q-87 0 -143 35zM206 1290l332 258l103 -121l-365 -215z" />
<glyph unicode="&#xfe;" horiz-adv-x="833" d="M82 -449v2063l197 35v-664q35 61 101.5 103t170.5 42q34 0 62 -6t50 -19.5t39.5 -29t30 -42t21.5 -50t15 -61.5t9.5 -67.5t5 -77.5t2 -82.5t0.5 -90.5q0 -83 -0.5 -127t-4 -114.5t-12 -108.5t-22 -89.5t-36 -78.5t-54 -54.5t-75.5 -38.5t-99 -11q-151 0 -213 131v-562 h-188zM268 262q9 -37 61 -83t107 -46q101 0 130.5 94.5t29.5 374.5q0 226 -25 300.5t-106 74.5q-71 0 -122 -41.5t-75 -110.5v-563z" />
<glyph unicode="&#xff;" horiz-adv-x="757" d="M-12 -414q13 28 41 81t41 81q28 -22 61 -22q48 0 94.5 67t79.5 215l-289 1104h213l172 -809l156 809h182l-288 -1194q-17 -69 -32.5 -117.5t-41 -99t-57.5 -81t-80 -50t-109 -19.5q-87 0 -143 35zM127 1255v246h168v-246h-168zM461 1255v246h168v-246h-168z" />
<glyph unicode="&#x152;" horiz-adv-x="1312" d="M61 762q0 127 2.5 207t11.5 172.5t26.5 147.5t48 111t75.5 85t109 47t149 18q164 0 240 -102v78h539v-160h-369v-481h309l-16 -162h-293v-567h379v-156h-547v76q-64 -101 -242 -101q-74 0 -132.5 11.5t-102 39.5t-74.5 60.5t-51.5 89t-33 109t-18.5 137t-8 157t-2 183.5z M274 762q0 -93 1 -157.5t4.5 -131t10 -109.5t17.5 -85t26.5 -66t37.5 -43t50.5 -27t65.5 -8q29 0 52 5t41.5 17.5t33 27t25.5 41.5t18.5 52t13 68t8.5 80t4.5 97t2 110.5t0.5 128.5q0 77 -0.5 127.5t-2 110.5t-4.5 97.5t-8.5 81t-13 69t-18.5 53t-25.5 42t-33 27.5t-41.5 18 t-52 5q-49 0 -83.5 -14.5t-58.5 -51t-38 -80.5t-21.5 -123t-9.5 -158t-2 -204z" />
<glyph unicode="&#x153;" horiz-adv-x="1400" d="M61 551q0 73 1 114t5.5 105t14.5 100.5t27.5 84t45.5 74t66.5 53t93 37.5t123.5 11q215 0 281 -143q63 143 264 143q73 0 130.5 -16.5t94.5 -40.5t63.5 -67t39.5 -79t20.5 -95t8.5 -96.5t1 -100.5v-86h-536q0 -57 1 -94.5t5.5 -85.5t12 -79.5t22.5 -65t35.5 -52t51.5 -31 t71 -12.5q97 0 134 51.5t48 169.5l155 -22q-21 -181 -99 -266t-251 -85q-212 0 -270 148q-64 -148 -283 -148q-69 0 -124 11t-93.5 37.5t-66.5 52t-45 74t-27.5 83.5t-14.5 99.5t-5 103.5t-1 113zM254 551q0 -106 2 -158.5t11 -114t28.5 -87.5t54 -44t88.5 -18q30 0 54 5.5 t42 13.5t32 26t23.5 34t15.5 47t10 56t5.5 69.5t2 78.5t0.5 92q0 66 -0.5 103.5t-3 86.5t-7.5 75t-14 57t-22.5 46.5t-32.5 30t-45 20t-60 5.5q-54 0 -88.5 -18t-54 -44t-28.5 -88t-11 -114.5t-2 -159.5zM807 664h356v11q0 149 -17 206q-41 108 -159 112q-35 0 -61.5 -8.5 t-45 -22t-31.5 -38.5t-20.5 -48t-12 -62t-6 -69.5t-3.5 -80.5z" />
<glyph unicode="&#x178;" horiz-adv-x="782" d="M18 1526h199l182 -672l193 672h170l-268 -883v-643h-201v643zM139 1669v246h168v-246h-168zM473 1669v246h168v-246h-168z" />
<glyph unicode="&#x2c6;" horiz-adv-x="569" d="M61 1319l156 260h131l160 -262l-107 -51l-120 213l-121 -217z" />
<glyph unicode="&#x2dc;" horiz-adv-x="782" d="M61 1346q43 170 181 170q47 0 101 -25t101 -49.5t78 -24.5q57 0 78 113l121 -39q-24 -94 -73.5 -138t-115.5 -44q-45 0 -98.5 23t-101 46t-78.5 23q-45 0 -80 -111z" />
<glyph unicode="&#x2000;" horiz-adv-x="996" />
<glyph unicode="&#x2001;" horiz-adv-x="1993" />
<glyph unicode="&#x2002;" horiz-adv-x="996" />
<glyph unicode="&#x2003;" horiz-adv-x="1993" />
<glyph unicode="&#x2004;" horiz-adv-x="664" />
<glyph unicode="&#x2005;" horiz-adv-x="498" />
<glyph unicode="&#x2006;" horiz-adv-x="332" />
<glyph unicode="&#x2007;" horiz-adv-x="332" />
<glyph unicode="&#x2008;" horiz-adv-x="249" />
<glyph unicode="&#x2009;" horiz-adv-x="398" />
<glyph unicode="&#x200a;" horiz-adv-x="110" />
<glyph unicode="&#x2010;" horiz-adv-x="448" d="M23 537l16 129h389l-16 -129h-389z" />
<glyph unicode="&#x2011;" horiz-adv-x="448" d="M23 537l16 129h389l-16 -129h-389z" />
<glyph unicode="&#x2012;" horiz-adv-x="448" d="M23 537l16 129h389l-16 -129h-389z" />
<glyph unicode="&#x2013;" horiz-adv-x="811" d="M23 537l16 129h754l-15 -129h-755z" />
<glyph unicode="&#x2014;" horiz-adv-x="1234" d="M23 535l16 131h1178l-17 -131h-1177z" />
<glyph unicode="&#x2018;" horiz-adv-x="268" d="M37 1112v215q0 144 149 299l56 -43q-105 -105 -105 -219h94v-252h-194z" />
<glyph unicode="&#x2019;" horiz-adv-x="268" d="M27 1133q104 107 104 219h-94v254h194v-215q0 -143 -149 -301z" />
<glyph unicode="&#x201a;" horiz-adv-x="264" d="M29 -207q102 105 102 219h-94v254h194v-215q0 -143 -149 -301z" />
<glyph unicode="&#x201c;" horiz-adv-x="567" d="M39 1112v215q0 144 149 299l54 -43q-103 -109 -103 -219h94v-252h-194zM338 1112v215q0 144 149 299l54 -43q-103 -103 -103 -219h94v-252h-194z" />
<glyph unicode="&#x201d;" horiz-adv-x="567" d="M27 1133q104 107 104 219h-94v254h194v-215q0 -143 -149 -301zM324 1133q106 106 106 219h-94v254h194v-215q0 -144 -151 -301z" />
<glyph unicode="&#x201e;" horiz-adv-x="567" d="M27 -207q102 105 102 219h-94v254h194v-215q0 -143 -149 -301zM324 -207q104 107 104 219h-94v254h194v-215q0 -144 -151 -301z" />
<glyph unicode="&#x2022;" horiz-adv-x="690" d="M61 725q0 130 80.5 215.5t202.5 85.5q119 0 202 -86t83 -215q0 -126 -83.5 -211.5t-201.5 -85.5q-121 0 -202 84.5t-81 212.5z" />
<glyph unicode="&#x2026;" horiz-adv-x="1564" d="M61 0v266h193v-266h-193zM686 0v266h193v-266h-193zM1313 0v266h192v-266h-192z" />
<glyph unicode="&#x202f;" horiz-adv-x="398" />
<glyph unicode="&#x2039;" horiz-adv-x="403" d="M23 596l313 369l49 -54l-225 -315l225 -313l-49 -52z" />
<glyph unicode="&#x203a;" horiz-adv-x="403" d="M23 283l225 313l-225 315l49 54l313 -369l-313 -365z" />
<glyph unicode="&#x205f;" horiz-adv-x="498" />
<glyph unicode="&#x20ac;" horiz-adv-x="888" d="M14 637l25 84h67v94h-92l25 86h67q1 86 4.5 150t11.5 130t21.5 112.5t34.5 91.5t51 73.5t70.5 51t93.5 32.5t119 10q136 0 219.5 -26t132.5 -86l-84 -187q-43 76 -96 108t-149 32q-55 0 -92.5 -19t-61 -54t-37 -98t-18 -137t-4.5 -184h315l-37 -86h-278v-94h237l-35 -84 h-202q0 -199 17.5 -305t57.5 -151.5t115 -45.5q52 0 86 11.5t56.5 39t35 62.5t23.5 92l151 -64q-9 -53 -21 -91.5t-37 -81t-61 -69t-95.5 -44t-137.5 -17.5q-60 0 -109 8.5t-87.5 24t-68.5 42t-52.5 57t-38 74.5t-25.5 89.5t-15.5 107.5t-7.5 122t-2 139h-92z" />
<glyph unicode="&#x2122;" horiz-adv-x="1079" d="M61 1468v101h349v-101h-115v-565h-119v565h-115zM471 903v666h150l124 -525l127 525h146v-666h-109v440l-112 -440h-109l-117 443v-443h-100z" />
<glyph unicode="&#x25fc;" horiz-adv-x="1116" d="M0 0v1116h1116v-1116h-1116z" />
<glyph unicode="&#xfb01;" horiz-adv-x="862" d="M-12 975l16 137h72v156q0 147 25.5 228.5t77.5 113.5t143 32q63 0 109.5 -18.5t68.5 -46.5l-2 -137q-40 49 -119 49q-31 0 -51.5 -10t-32.5 -26t-18 -49.5t-7.5 -66t-1.5 -88.5v-137h512v-1112h-192v975h-320v-975h-192v975h-88zM588 1339v267h192v-267h-192z" />
<glyph unicode="&#xfb02;" horiz-adv-x="862" d="M-12 975l16 137h72v156q0 113 14 183t51 114t94 60.5t150 16.5q37 0 87.5 -14t86.5 -33q84 27 219 41v-1636h-192v1423q-48 31 -111.5 45.5t-95.5 14.5q-69 0 -90 -45.5t-21 -188.5v-137h201l-16 -137h-185v-975h-192v975h-88z" />
<glyph unicode="&#xfb03;" horiz-adv-x="1323" d="M-12 975l16 137h72v156q0 148 26.5 229t81 113t152.5 32q120 0 178 -65l-35 -137q-41 47 -119 47q-38 0 -56.5 -16.5t-27 -66.5t-8.5 -155v-137h271v156q0 147 25.5 228.5t76.5 113.5t141 32q63 0 110 -18.5t69 -46.5l-3 -137q-49 45 -133 45q-40 0 -58.5 -15.5 t-28 -65.5t-9.5 -155v-137h512v-1112h-190v975h-322v-975h-190v975h-271v-975h-192v975h-88zM1051 1339v267h190v-267h-190z" />
<glyph unicode="&#xfb04;" horiz-adv-x="1357" d="M-12 975l16 137h72v156q0 148 26.5 229t81 113t152.5 32q120 0 178 -65l-35 -137q-41 47 -119 47q-38 0 -56.5 -16.5t-27 -66.5t-8.5 -155v-137h271v156q0 113 14 183t50.5 114t93.5 60.5t149 16.5q37 0 87.5 -14t88.5 -33q81 26 217 41v-1636h-192v1430q-87 63 -185 63 q-56 0 -82.5 -17t-38.5 -68t-12 -159v-137h201l-15 -137h-186v-975h-190v975h-271v-975h-192v975h-88z" />
</font>
</defs>
</svg>
